<svg width="80" height="80" viewBox="0 0 80 80" fill="none" xmlns="http://www.w3.org/2000/svg">
<g clip-path="url(#clip0_1538_4569)">
<path d="M80 40C80 62.0914 62.0914 80 40 80V73C58.2254 73 73 58.2254 73 40C73 21.7746 58.2254 7 40 7V0C62.0914 0 80 17.9086 80 40Z" fill="url(#paint0_linear_1538_4569)"/>
<path d="M40 0C41.933 0 43.5 1.567 43.5 3.5C43.5 5.433 41.933 7 40 7C21.7746 7 7 21.7746 7 40C7 58.2254 21.7746 73 40 73V80C17.9086 80 0 62.0914 0 40C0 17.9086 17.9086 0 40 0Z" fill="url(#paint1_linear_1538_4569)"/>
</g>
<defs>
<linearGradient id="paint0_linear_1538_4569" x1="40" y1="7" x2="40" y2="72.5" gradientUnits="userSpaceOnUse">
<stop stop-color="#606060" stop-opacity="0"/>
<stop offset="1" stop-color="#606060" stop-opacity="0.3"/>
</linearGradient>
<linearGradient id="paint1_linear_1538_4569" x1="40" y1="7" x2="40" y2="73" gradientUnits="userSpaceOnUse">
<stop stop-color="#606060"/>
<stop offset="1" stop-color="#606060" stop-opacity="0.3"/>
</linearGradient>
<clipPath id="clip0_1538_4569">
<rect width="80" height="80" fill="white"/>
</clipPath>
</defs>
</svg>
