<svg width="24" height="24" viewBox="0 0 24 24" fill="none" xmlns="http://www.w3.org/2000/svg">
      <path fill-rule="evenodd" clip-rule="evenodd" d="M20.0004 7.00039C20.5524 7.0006 20.9998 7.44803 21 8V20.4008C20.9995 20.9525 20.5522 21.4002 20.0004 21.4004H3.99961C3.44783 21.4002 3.00053 20.9525 3 20.4008V8C3.00021 7.44803 3.44763 7.0006 3.99961 7.00039H20.0004ZM4.2 20.2004H19.8V8.20039H4.2V20.2004Z" fill="black" fill-opacity="0.9"/>
      <path d="M18.9492 4.50078C19.5015 4.50078 19.95 4.94811 19.95 5.50039V5.70078H4.05V5.50039C4.05 4.94811 4.49732 4.50078 5.04961 4.50078H18.9492Z" fill="black" fill-opacity="0.9"/>
      <path d="M18.15 2C18.7018 2.00032 19.1493 2.44779 19.1496 2.99961V3.2H4.84922V2.99961C4.84954 2.44759 5.29791 2 5.85 2H18.15Z" fill="black" fill-opacity="0.9"/>
</svg>
