<svg width="22" height="20" viewBox="0 0 22 20" fill="none" xmlns="http://www.w3.org/2000/svg">
<path d="M9.79365 3.89338L5.29953 10.2226C7.63956 10.4087 9.5722 12.2605 9.78369 14.6769C10.0194 17.3709 8.02641 19.7461 5.33241 19.9819C2.67489 20.2144 0.258172 18.1688 0.0273348 15.5307C-0.164634 13.3365 0.672538 10.9879 1.96605 9.25025C4.55294 6.16732 9.79365 0 9.79365 0V3.89338ZM21.417 3.89338L16.9229 10.2226C19.263 10.4086 21.1955 12.2604 21.407 14.6769C21.6427 17.371 19.6499 19.7462 16.9557 19.9819C14.2983 20.2143 11.8815 18.1687 11.6507 15.5307C11.4587 13.3365 12.2969 10.9879 13.5904 9.25025C16.1705 6.17544 21.3892 0.0326969 21.417 0V3.89338Z" fill="black" fill-opacity="0.05"/>
</svg>
