<svg xmlns="http://www.w3.org/2000/svg" width="24" height="24" viewBox="0 0 24 24" fill="none">
    <path d="M18.3999 7.23011C16.9299 6.02011 14.3099 5.84011 13.3399 4.23011C13.2599 4.08011 13.1199 3.78011 13.0699 3.38011C13.0399 3.15011 12.9699 2.97011 12.8499 2.84011C12.8099 2.80011 12.7599 2.77011 12.7099 2.75011C12.7099 2.75011 12.6999 2.75011 12.6899 2.75011C12.6699 2.75011 12.6499 2.73011 12.6299 2.72011C12.1899 2.62011 11.9299 2.94011 11.9299 4.08011V12.2601C11.9299 15.5101 11.1399 14.8201 9.11992 15.3301C7.64992 15.7001 6.41992 16.6901 6.41992 18.2101C6.41992 19.7301 7.64992 20.9601 9.16992 20.9601C13.2499 20.9601 13.1299 16.7201 13.1299 15.1001V14.9301V8.00011C13.1299 6.47011 14.2299 6.66011 16.1299 7.35011C17.1999 7.75011 18.2199 8.21011 18.6299 9.33011C18.9699 10.6001 18.2399 11.7501 17.1199 12.3701C16.9099 12.4901 17.0399 12.8101 17.2699 12.7401C19.5299 12.0501 20.7099 9.01011 18.3999 7.25011V7.23011Z" fill="black"/>
</svg>