<svg width="24" height="24" viewBox="0 0 24 24" fill="none" xmlns="http://www.w3.org/2000/svg">
<path fill-rule="evenodd" clip-rule="evenodd" d="M20.2681 5.32718L4.51118 2.54881C4.23923 2.50086 3.9799 2.68244 3.93195 2.95439L3.7583 3.9392L18.2813 6.5H5.58829L6.38931 20.1174C6.4515 21.1746 7.32691 22 8.38586 22H15.6142C16.6732 22 17.5486 21.1746 17.6108 20.1174L18.4105 6.52277L20.5 6.89122L20.6737 5.90641C20.7216 5.63446 20.54 5.37513 20.2681 5.32718ZM14.7934 1.82331L10.8541 1.12871C10.5822 1.08076 10.3229 1.26235 10.2749 1.53429L10.1013 2.51907L15.0253 3.38731L15.1989 2.40253C15.2469 2.13059 15.0653 1.87126 14.7934 1.82331ZM9.50005 18L9.00005 8.99998H10.6001L11.0001 18H9.50005ZM13.0001 18L13.5001 8.99998H15.0001L14.5001 18H13.0001Z" fill="black"/>
</svg>
