<svg width="20" height="20" viewBox="0 0 20 20" fill="none" xmlns="http://www.w3.org/2000/svg">
<path fill-rule="evenodd" clip-rule="evenodd" d="M10.466 2.41419L10.4898 2.39736C11.0728 1.98376 11.8108 1.80146 12.554 1.93151C13.3304 2.06738 14.0524 2.56084 14.4639 3.27024C14.8151 3.87664 14.9153 4.58803 14.7381 5.32291L14.7051 5.44085L14.8077 5.44451C16.1822 5.51835 17.1155 6.27762 17.3299 7.33923L17.3529 7.47348C17.3764 7.6384 17.3811 7.80305 17.3683 7.96486L17.3518 8.10335L17.3756 8.12083C17.9083 8.51701 18.2926 9.10198 18.4295 9.78158L18.4567 9.94004C18.5675 10.7203 18.3214 11.5593 17.7744 12.1696C17.3066 12.6914 16.6608 13.0066 15.9067 13.0653L15.7835 13.0709L15.8125 13.1685C16.1674 14.4986 15.7336 15.621 14.7898 16.153L14.6692 16.2164C14.5196 16.2896 14.3645 16.345 14.2066 16.3827L14.0685 16.41L14.0608 16.4378C13.8485 17.0667 13.411 17.6128 12.8071 17.9531L12.6649 18.028C11.9569 18.3746 11.0829 18.4001 10.3331 18.0681C9.69238 17.7842 9.19306 17.2674 8.90424 16.5686L8.86013 16.4534L8.75139 16.527C7.60529 17.2572 6.41733 17.1884 5.62544 16.4636L5.52443 16.3654C5.40859 16.2458 5.308 16.1154 5.22331 15.9769L5.15347 15.8542L5.06752 15.854C4.42634 15.8333 3.7974 15.5887 3.30299 15.1365L3.18226 15.0191C2.63378 14.4531 2.33953 13.6292 2.4236 12.8142C2.49542 12.1172 2.83256 11.4826 3.408 10.9917L3.50347 10.915L3.40051 10.8336C2.35167 9.96937 2.04993 8.81806 2.4945 7.84123L2.55672 7.71485C2.63468 7.56766 2.7276 7.43167 2.83311 7.30831L2.92847 7.20419L2.90192 7.12169C2.72357 6.50538 2.76188 5.83157 3.03923 5.22151L3.11356 5.07039C3.48279 4.37405 4.17492 3.83993 4.97613 3.66789C5.66141 3.52091 6.36912 3.64545 7.01336 4.041L7.11597 4.10835L7.15063 4.01291C7.64535 2.72844 8.65581 2.07555 9.73163 2.19946L9.86642 2.219C10.0305 2.24762 10.1886 2.29394 10.3385 2.35614L10.466 2.41419ZM12.3816 2.91654C11.6247 2.78409 10.8969 3.15999 10.5469 3.79853C10.3706 3.49558 10.067 3.26908 9.69463 3.20414C9.15847 3.1104 8.18053 3.39416 7.89869 5.06314C7.88653 5.13416 7.87693 5.20422 7.86894 5.273C7.81999 5.70009 7.84751 6.07534 7.89677 6.37509C7.62388 5.94354 7.24223 5.46239 6.71374 5.04906C6.18492 4.6351 5.64972 4.54616 5.18584 4.64565C4.65543 4.75954 4.21875 5.12073 3.99705 5.53884C3.63715 6.2177 3.76992 7.02612 4.26897 7.55621C3.92635 7.63011 3.61732 7.84893 3.44041 8.18292C3.18543 8.66377 3.15312 9.68169 4.65351 10.4655C4.71749 10.4988 4.78116 10.5298 4.84417 10.5586C5.23542 10.7371 5.60045 10.8267 5.90084 10.8728C5.40594 10.9988 4.83074 11.2131 4.27409 11.588C3.71713 11.9633 3.46696 12.4448 3.41833 12.9167C3.36267 13.4564 3.57125 13.9835 3.90044 14.3233C4.43501 14.8754 5.24471 14.9989 5.90277 14.688C5.86725 15.0367 5.97986 15.3982 6.24283 15.6698C6.62161 16.061 7.57942 16.4059 8.78872 15.2216C8.84022 15.171 8.88913 15.1202 8.93613 15.069C9.22697 14.7523 9.42497 14.4327 9.56155 14.1611C9.52863 14.6707 9.55455 15.284 9.73913 15.9293C9.92372 16.5749 10.3044 16.9616 10.7382 17.1539C11.2347 17.3737 11.8003 17.3379 12.2251 17.1299C12.9152 16.792 13.2831 16.0601 13.191 15.338C13.5115 15.4798 13.8903 15.4843 14.2297 15.3182C14.7189 15.0789 15.343 14.2744 14.59 12.7586C14.558 12.694 14.5247 12.6316 14.4905 12.5714C14.279 12.1969 14.0362 11.9099 13.8202 11.6962C14.2947 11.8849 14.8862 12.0497 15.5567 12.0737C16.2279 12.0977 16.7132 11.8552 17.0299 11.502C17.392 11.0979 17.5331 10.549 17.4666 10.0806C17.3588 9.31985 16.7762 8.74369 16.0609 8.60844C16.2948 8.34702 16.416 7.98841 16.3629 7.61411C16.2865 7.07506 15.7141 6.23305 14.0397 6.48034L13.8308 6.51714C13.4095 6.60255 13.0614 6.74491 12.7911 6.88408C13.117 6.49123 13.4568 5.97969 13.6869 5.34914C13.9172 4.71828 13.8362 4.18179 13.5985 3.77134C13.3263 3.30203 12.8477 2.99811 12.3816 2.91654Z" fill="black" fill-opacity="0.9"/>
<path fill-rule="evenodd" clip-rule="evenodd" d="M10.5339 11.6595C9.62054 11.9558 8.64001 11.4554 8.34377 10.5421C8.04753 9.62873 8.54787 8.6482 9.4609 8.35196C10.3742 8.05572 11.3548 8.55606 11.651 9.46941C11.9476 10.3828 11.4472 11.3633 10.5339 11.6595Z" fill="black" fill-opacity="0.9"/>
</svg>
