<svg width="16" height="16" viewBox="0 0 16 16" fill="none" xmlns="http://www.w3.org/2000/svg">
<ellipse cx="8.33333" cy="7.99996" rx="4.33333" ry="3.33333" fill="white"/>
<path fill-rule="evenodd" clip-rule="evenodd" d="M10.9195 1.80914L11.8759 4.11809L14.1852 5.07486C14.4247 5.17406 14.5384 5.4486 14.4392 5.68808L13.4825 7.99684L14.4392 10.3065C14.5384 10.546 14.4247 10.8205 14.1852 10.9197L11.8757 11.8759L10.9195 14.1855C10.8203 14.4249 10.5457 14.5386 10.3063 14.4395L7.99699 13.4825L5.68783 14.4395C5.44836 14.5386 5.17381 14.4249 5.07462 14.1855L4.11793 11.8758L1.80889 10.9197C1.56942 10.8205 1.4557 10.546 1.55489 10.3065L2.5113 7.99703L1.55489 5.68808C1.4557 5.4486 1.56942 5.17406 1.80889 5.07486L4.11806 4.11796L5.07462 1.80914C5.17381 1.56966 5.44836 1.45594 5.68783 1.55514L7.99681 2.51133L10.3063 1.55514C10.5457 1.45594 10.8203 1.56966 10.9195 1.80914ZM7.21542 9.42625L10.9483 5.69337L11.6566 6.40172L7.66961 10.3871C7.4196 10.637 7.01432 10.6369 6.76445 10.3868L4.66646 8.28734L5.37149 7.58232L7.21542 9.42625Z" fill="#FFC300"/>
</svg>
