<svg width="342" height="231" viewBox="0 0 342 231" fill="none" xmlns="http://www.w3.org/2000/svg">
<rect x="18" y="18" width="306" height="184" rx="8" stroke="black" stroke-opacity="0.04" stroke-width="4"/>
<rect x="20" y="20" width="302" height="180" rx="6" fill="#FAFAFA"/>
<line x1="20" y1="155.75" x2="322" y2="155.75" stroke="black" stroke-opacity="0.1" stroke-width="0.5"/>
<path fill-rule="evenodd" clip-rule="evenodd" d="M68.6675 184.268L69.1072 184.395C70.0285 184.662 71.0022 184.8 72 184.8C76.8994 184.8 80.8 181.485 80.8 177.5C80.8 173.515 76.8994 170.2 72 170.2C67.1006 170.2 63.2 173.515 63.2 177.5C63.2 179.576 64.2569 181.526 66.1006 182.911L66.6513 183.325L66.4162 185.347L68.6675 184.268ZM72 186C70.871 186 69.7857 185.841 68.7735 185.548L65.7905 186.978C65.7054 187.019 65.6104 187.035 65.5166 187.024C65.2423 186.992 65.0458 186.744 65.0777 186.47L65.3798 183.871C63.307 182.313 62 180.036 62 177.5C62 172.806 66.4772 169 72 169C77.5228 169 82 172.806 82 177.5C82 182.194 77.5228 186 72 186Z" fill="black" fill-opacity="0.3"/>
<path fill-rule="evenodd" clip-rule="evenodd" d="M127 185.315V186C127 186.552 127.448 187 128 187H145C145.552 187 146 186.552 146 186V185.315C146 184.625 145.501 183.832 144.886 183.532L139.226 180.771C138.401 180.368 138.217 179.479 138.807 178.78L139.168 178.352C139.901 177.483 140.5 175.849 140.5 174.71V173C140.5 170.793 138.709 169 136.5 169C134.295 169 132.5 170.791 132.5 173V174.709C132.5 175.849 133.096 177.478 133.832 178.35L134.193 178.779C134.786 179.481 134.595 180.369 133.774 180.769L128.114 183.531C127.498 183.832 127 184.63 127 185.315ZM144.8 185.315V185.8H128.2V185.315C128.2 185.089 128.437 184.709 128.64 184.61L134.301 181.848C135.825 181.104 136.207 179.304 135.111 178.005L134.749 177.576C134.196 176.92 133.7 175.566 133.7 174.709V173C133.7 171.455 134.956 170.2 136.5 170.2C138.046 170.2 139.3 171.455 139.3 173V174.71C139.3 175.564 138.802 176.924 138.251 177.578L137.889 178.006C136.796 179.303 137.173 181.104 138.699 181.849L144.36 184.61C144.565 184.71 144.8 185.086 144.8 185.315Z" fill="black" fill-opacity="0.3"/>
<path d="M149 174.5H142V175.7H149V174.5Z" fill="black" fill-opacity="0.3"/>
<path d="M144 177.5H149V178.7H144V177.5Z" fill="black" fill-opacity="0.3"/>
<path d="M146 180.5H149V181.7H146V180.5Z" fill="black" fill-opacity="0.3"/>
<path fill-rule="evenodd" clip-rule="evenodd" d="M204 186.8C208.86 186.8 212.8 182.86 212.8 178C212.8 173.14 208.86 169.2 204 169.2C199.14 169.2 195.2 173.14 195.2 178C195.2 182.86 199.14 186.8 204 186.8ZM204 188C198.477 188 194 183.523 194 178C194 172.477 198.477 168 204 168C209.523 168 214 172.477 214 178C214 183.523 209.523 188 204 188ZM203.123 177.123L201.267 180.733L204.877 178.877L206.733 175.267L203.123 177.123ZM202.232 176.232L208.124 173.202C208.268 173.129 208.438 173.129 208.582 173.202C208.827 173.329 208.924 173.63 208.798 173.876L205.768 179.768L199.876 182.798C199.732 182.871 199.562 182.871 199.418 182.798C199.173 182.671 199.076 182.37 199.202 182.124L202.232 176.232Z" fill="black" fill-opacity="0.3"/>
<path fill-rule="evenodd" clip-rule="evenodd" d="M261.5 187C260.948 187 260.5 186.552 260.5 186V185.315C260.5 184.63 260.998 183.832 261.614 183.531L267.274 180.769C268.095 180.369 268.286 179.481 267.693 178.779L267.332 178.35C266.596 177.478 266 175.849 266 174.709V173C266 170.791 267.795 169 270 169C272.209 169 274 170.793 274 173V174.71C274 175.849 273.401 177.483 272.668 178.352L272.307 178.78C271.717 179.479 271.901 180.368 272.726 180.771L278.386 183.532C279.001 183.832 279.5 184.625 279.5 185.315V186C279.5 186.552 279.052 187 278.5 187H261.5Z" fill="black" fill-opacity="0.55"/>
<circle cx="44" cy="42" r="10" fill="black" fill-opacity="0.1"/>
<rect width="302" height="45" transform="translate(20 64)" fill="white"/>
<path d="M37.2616 93.8955H46.2378V83.2705H37.2616V93.8955ZM47.1663 94.0518C47.1663 94.4832 46.8199 94.833 46.3925 94.833H37.1068C36.6795 94.833 36.333 94.4832 36.333 94.0518V83.1143C36.333 82.6828 36.6795 82.333 37.1068 82.333H46.3925C46.8199 82.333 47.1663 82.6828 47.1663 83.1143V94.0518Z" fill="#10AEFF"/>
<path d="M49.666 90.5326C49.666 90.7905 49.4569 90.9997 49.1989 90.9997C48.9409 90.9997 48.7317 90.7905 48.7317 90.5326V80.7672H39.6332C39.3752 80.7672 39.166 80.5581 39.166 80.3001C39.166 80.0421 39.3752 79.833 39.6332 79.833H48.8874C49.3174 79.833 49.666 80.1816 49.666 80.6115V90.5326Z" fill="#FA9D3B"/>
<path d="M51.9997 87.3659C51.9997 87.6239 51.7905 87.833 51.5325 87.833C51.2745 87.833 51.0654 87.6239 51.0654 87.3659V78.7672H43.3002C43.0422 78.7672 42.833 78.5581 42.833 78.3001C42.833 78.0421 43.0422 77.833 43.3002 77.833H51.2211C51.6511 77.833 51.9997 78.1816 51.9997 78.6115V87.3659Z" fill="#1485EE"/>
<path d="M75.26 82.925C74.57 84.38 73.775 85.64 72.875 86.72L72.11 85.805C73.43 84.245 74.525 82.19 75.365 79.655L76.445 79.895C76.205 80.585 75.965 81.245 75.725 81.86H82.205V82.925H77.165V85.4H81.545V86.45H77.165V88.985H81.635V90.02H77.165V93.515H76.07V82.925H75.26ZM70.46 85.085C69.98 85.715 69.455 86.315 68.885 86.885L68.525 85.745C70.145 83.99 71.33 81.98 72.065 79.7L73.085 80.18C72.68 81.35 72.17 82.445 71.57 83.465V93.515H70.46V85.085ZM86.36 80.375H94.625V85.28H86.36V80.375ZM93.545 84.26V81.395H87.44V84.26H93.545ZM89.645 86.765V93.275H88.595V92.51H85.43V93.275H84.365V86.765H89.645ZM85.43 91.49H88.595V87.8H85.43V91.49ZM96.62 86.765V93.275H95.54V92.51H92.255V93.275H91.19V86.765H96.62ZM92.255 91.49H95.54V87.8H92.255V91.49Z" fill="black" fill-opacity="0.9"/>
<path fill-rule="evenodd" clip-rule="evenodd" d="M302.045 81.9835L302.929 81.0996L307.745 85.9154C308.07 86.2405 308.073 86.7647 307.745 87.0927L302.929 91.9084L302.045 91.0245L306.565 86.504L302.045 81.9835Z" fill="black" fill-opacity="0.3"/>
<rect x="68" y="34" width="80" height="16" rx="2" fill="url(#paint0_linear_529_24848)"/>
<circle cx="44" cy="134" r="10" fill="black" fill-opacity="0.1"/>
<rect x="68" y="126" width="80" height="16" rx="2" fill="url(#paint1_linear_529_24848)"/>
<defs>
<linearGradient id="paint0_linear_529_24848" x1="99.6418" y1="42" x2="148" y2="42" gradientUnits="userSpaceOnUse">
<stop stop-color="#EAEAEA"/>
<stop offset="1" stop-color="white" stop-opacity="0.24"/>
</linearGradient>
<linearGradient id="paint1_linear_529_24848" x1="99.6418" y1="134" x2="148" y2="134" gradientUnits="userSpaceOnUse">
<stop stop-color="#EAEAEA"/>
<stop offset="1" stop-color="white" stop-opacity="0.24"/>
</linearGradient>
</defs>
</svg>
