<svg width="24" height="24" viewBox="0 0 24 24" fill="none" xmlns="http://www.w3.org/2000/svg">
      <path fill-rule="evenodd" clip-rule="evenodd" d="M20.0004 7.59961C20.5524 7.59982 20.9998 8.04724 21 8.59922V21C20.9995 21.5517 20.5522 21.9994 20.0004 21.9996H3.99961C3.44783 21.9994 3.00053 21.5517 3 21V8.59922C3.00021 8.04724 3.44763 7.59982 3.99961 7.59961H20.0004Z" fill="black" fill-opacity="0.9"/>
      <path d="M18.8991 4.79401C19.4514 4.79401 19.8999 5.24134 19.8999 5.79362V6.29323H3.99988V5.79362C3.99988 5.24134 4.44721 4.79401 4.99949 4.79401H18.8991Z" fill="black" fill-opacity="0.9"/>
      <path d="M18.1497 2C18.7016 2.00032 19.149 2.44779 19.1494 2.99961V3.5H4.84896V2.99961C4.84927 2.44759 5.29765 2 5.84974 2H18.1497Z" fill="black" fill-opacity="0.9"/>
</svg>
