<svg width="40" height="40" viewBox="0 0 40 40" fill="none" xmlns="http://www.w3.org/2000/svg">
    <rect width="40" height="40" fill="#00BC70"/>
    <path d="M16.4262 12.1393C13.9164 13.4253 12.2002 16.0397 12.2002 19.0394C12.2002 21.7142 13.5543 24.0788 15.619 25.4701L14.5014 27.1287C11.9061 25.3799 10.2002 22.4045 10.2002 19.0394C10.2002 15.259 12.364 11.9735 15.5142 10.3594L16.4262 12.1393Z" fill="white"/>
    <path d="M27.7962 19.0394C27.7962 16.0397 26.08 13.4253 23.5702 12.1393L24.4822 10.3594C27.6324 11.9735 29.7962 15.259 29.7962 19.0394C29.7962 22.3942 28.1008 25.3577 25.5191 27.1159L24.3933 25.4628C26.4516 24.0611 27.7962 21.7045 27.7962 19.0394Z" fill="white"/>
    <path d="M21.1776 20.5004H18.8231C17.9159 20.5004 17.1758 21.3023 17.2562 22.2097L18.2936 29.1892C18.3629 29.6548 18.7626 29.9995 19.2333 29.9995H20.7663C21.2371 29.9995 21.6368 29.6548 21.706 29.1892L22.7434 22.2097C22.8463 21.3061 22.072 20.5004 21.1776 20.5004Z" fill="white"/>
    <path d="M22.5 16.4995C22.5 17.8802 21.3807 18.9995 20 18.9995C18.6193 18.9995 17.5 17.8802 17.5 16.4995C17.5 15.1188 18.6193 13.9995 20 13.9995C21.3807 13.9995 22.5 15.1188 22.5 16.4995Z" fill="white"/>
</svg>
