<svg width="24" height="24" viewBox="0 0 24 24" fill="none" xmlns="http://www.w3.org/2000/svg">
<path fill-rule="evenodd" clip-rule="evenodd" d="M2.65039 4.44058C2.65053 3.79763 3.28225 3.35774 3.87988 3.54244L3.99902 3.58783L8.87695 5.82062C10.2289 6.43942 11.3093 7.46015 12 8.70046C12.6907 7.46015 13.7711 6.43942 15.123 5.82062L20.001 3.58783L20.1201 3.54244C20.7177 3.35774 21.3495 3.79763 21.3496 4.44058V12.2283C21.3495 14.8679 19.7993 17.2675 17.377 18.3762L12.3574 20.6737C12.347 20.6785 12.3357 20.681 12.3252 20.6853C12.2392 20.7205 12.1494 20.7439 12.0576 20.75H11.9424C11.8503 20.7439 11.7601 20.7207 11.6738 20.6853C11.6636 20.6811 11.6527 20.6783 11.6426 20.6737L6.62305 18.3762C4.20074 17.2675 2.65048 14.8679 2.65039 12.2283V4.44058ZM4.34961 12.2283C4.3497 14.2128 5.51582 16.0168 7.33691 16.8503L11.1504 18.5954V11.9685C11.1504 9.984 9.98424 8.18005 8.16309 7.34649L4.34961 5.60043V12.2283ZM15.8369 7.34649C14.0158 8.18005 12.8496 9.984 12.8496 11.9685V18.5954L16.6631 16.8503C18.4842 16.0168 19.6503 14.2128 19.6504 12.2283V5.60043L15.8369 7.34649Z" fill="black"/>
</svg>
