<svg width="24" height="24" viewBox="0 0 24 24" fill="none" xmlns="http://www.w3.org/2000/svg">
<path fill-rule="evenodd" clip-rule="evenodd" d="M3 4.03607C3 3.46386 3.47491 3 4.06075 3H16.7898C17.3756 3 17.8505 3.46386 17.8505 4.03606V12.3246L8.30376 21.6492H4.06075C3.47492 21.6492 3 21.1853 3 20.6131V4.03607ZM5.65188 6.02529H12.0164V7.57939H5.65188V6.02529ZM12.0164 9.15423H5.65188V10.7083H12.0164V9.15423ZM19.5536 13.0578C19.7481 12.8836 20.0503 12.8964 20.2286 13.0864L20.8744 13.7743C21.0527 13.9643 21.0396 14.2595 20.8451 14.4336L14.1847 20.853L11.9138 21.97C11.7724 22.0396 11.6 21.984 11.5288 21.8459C11.4836 21.7582 11.4887 21.6537 11.5423 21.5707L12.8933 19.477L19.5536 13.0578Z" fill="black"/>
</svg>
