<svg width="24" height="24" viewBox="0 0 24 24" fill="none" xmlns="http://www.w3.org/2000/svg">
<path fill-rule="evenodd" clip-rule="evenodd" d="M6.3676 2.5H8.07868L8.08667 2.50021C9.22971 2.53069 10.2744 3.0608 11.0126 3.79897C11.7914 4.57778 12.3304 5.60621 12.6653 6.62497H15.7042C16.6684 6.62497 17.45 7.40661 17.45 8.3708C17.45 9.335 16.6684 10.1166 15.7042 10.1166H14.1075L14.1 10.1167H7.10237C6.82907 10.1167 6.6695 10.2813 6.6695 10.5495V12.1634C6.6695 12.6712 6.47497 13.2695 6.15751 13.7452C5.84479 14.2137 5.3144 14.7 4.58475 14.7C3.75526 14.7 3.17426 13.9806 3.27865 13.1907L3.2802 13.1748L3.28728 13.0997C3.29317 13.0359 3.30101 12.9477 3.30884 12.8498C3.32504 12.6474 3.33921 12.4271 3.33921 12.2925C3.33921 11.6138 3.27697 10.8966 3.10213 10.2555L3.09877 10.2432C3.0403 10.0093 2.9824 9.8347 2.91812 9.64185L2.9137 9.62861C2.63803 8.73268 2.5 7.83397 2.5 6.86995C2.5 5.94742 2.64038 5.06286 3.25476 4.20084C3.95109 3.19758 5.09208 2.60504 6.34302 2.50202L6.3676 2.5ZM4.47168 13.3205L4.4725 13.3122L4.47465 13.2901L4.4822 13.21C4.48841 13.1427 4.49671 13.0494 4.50502 12.9455C4.5211 12.7445 4.53921 12.4806 4.53921 12.2925C4.53921 11.5529 4.47268 10.7233 4.26153 9.94595C4.19221 9.66971 4.12252 9.46033 4.05878 9.2691C3.81936 8.48883 3.7 7.71108 3.7 6.86995C3.7 6.08052 3.81788 5.47701 4.23378 4.89475L4.23886 4.88754C4.70084 4.22023 5.48586 3.78295 6.41788 3.7H8.06228C8.85314 3.72333 9.61289 4.09636 10.164 4.6475C10.8637 5.34712 11.3598 6.35619 11.6406 7.38323L11.7614 7.82497H15.7042C16.0056 7.82497 16.25 8.06935 16.25 8.3708C16.25 8.67226 16.0056 8.91664 15.7042 8.91664H14.1075L14.1 8.91667H7.10237C6.14904 8.91667 5.4695 9.63602 5.4695 10.5495V12.1634C5.4695 12.4033 5.36342 12.7733 5.15939 13.079C4.95062 13.3918 4.73863 13.5 4.58475 13.5C4.53735 13.5 4.5111 13.4825 4.49498 13.4634C4.47784 13.443 4.46009 13.4054 4.46862 13.3457L4.47041 13.3331L4.47168 13.3205Z" fill="black"/>
<path fill-rule="evenodd" clip-rule="evenodd" d="M17.6324 21.5H15.9213L15.9133 21.4998C14.7703 21.4693 13.7256 20.9392 12.9874 20.201C12.2086 19.4222 11.6696 18.3938 11.3347 17.375H8.29596C7.33176 17.375 6.55012 16.5934 6.55012 15.6292C6.55012 14.665 7.33176 13.8834 8.29596 13.8834H9.89237L9.89995 13.8833L16.8976 13.8833C17.1709 13.8833 17.3305 13.7187 17.3305 13.4505V11.8366C17.3305 11.3288 17.525 10.7305 17.8425 10.2548C18.1552 9.78627 18.6856 9.3 19.4153 9.3C20.2447 9.3 20.8257 10.0194 20.7214 10.8093L20.7198 10.8252L20.7127 10.9003C20.7068 10.9641 20.699 11.0523 20.6912 11.1502C20.675 11.3526 20.6608 11.5729 20.6608 11.7075C20.6608 12.3862 20.723 13.1034 20.8979 13.7445L20.9012 13.7568C20.9597 13.9907 21.0176 14.1653 21.0819 14.3582L21.0863 14.3714C21.362 15.2673 21.5 16.166 21.5 17.13C21.5 18.0526 21.3596 18.9371 20.7452 19.7992C20.0489 20.8024 18.9079 21.395 17.657 21.498L17.6324 21.5ZM19.5283 10.6795L19.5275 10.6878L19.5254 10.7099L19.5178 10.79C19.5116 10.8573 19.5033 10.9506 19.495 11.0545C19.4789 11.2555 19.4608 11.5194 19.4608 11.7075C19.4608 12.4471 19.5273 13.2767 19.7385 14.054C19.8078 14.3303 19.8775 14.5397 19.9412 14.7309C20.1806 15.5112 20.3 16.2889 20.3 17.13C20.3 17.9195 20.1821 18.523 19.7662 19.1052L19.7611 19.1125C19.2992 19.7798 18.5141 20.2171 17.5821 20.3H15.9377C15.1469 20.2767 14.3871 19.9036 13.836 19.3525C13.1363 18.6529 12.6402 17.6438 12.3594 16.6168L12.2386 16.175H8.29596C7.9945 16.175 7.75012 15.9307 7.75012 15.6292C7.75012 15.3277 7.9945 15.0834 8.29596 15.0834H9.89239L9.89995 15.0833L16.8976 15.0833C17.851 15.0833 18.5305 14.364 18.5305 13.4505V11.8366C18.5305 11.5967 18.6366 11.2267 18.8406 10.921C19.0494 10.6082 19.2614 10.5 19.4153 10.5C19.4626 10.5 19.4889 10.5175 19.505 10.5366C19.5222 10.557 19.5399 10.5946 19.5314 10.6543L19.5296 10.6669L19.5283 10.6795Z" fill="black"/>
</svg>
