<svg width="24" height="24" viewBox="0 0 24 24" fill="none" xmlns="http://www.w3.org/2000/svg">
<path fill-rule="evenodd" clip-rule="evenodd" d="M12 22C6.47715 22 2 17.5228 2 12C2 6.47715 6.47715 2 12 2C17.5228 2 22 6.47715 22 12C22 17.5228 17.5228 22 12 22ZM12 20.8C16.8601 20.8 20.8 16.8601 20.8 12C20.8 7.13989 16.8601 3.2 12 3.2C7.13989 3.2 3.2 7.13989 3.2 12C3.2 16.8601 7.13989 20.8 12 20.8ZM15.006 12.5246L15.1444 12.5232C16.6131 12.2677 17.6818 11.1161 17.6818 9.72766C17.6818 8.15993 16.2769 6.90039 14.5515 6.90039C12.8261 6.90039 11.4212 8.15993 11.4212 9.72766V14.2731C11.4212 15.2188 10.5244 15.9913 9.39999 15.9913C8.27558 15.9913 7.37878 15.2188 7.37878 14.2731C7.37878 13.5138 7.97001 12.8476 8.81739 12.6431C9.09587 12.5734 9.35984 12.3681 9.4616 12.1307C9.47802 12.0982 9.48916 12.0661 9.49484 12.032C9.49929 12.0053 9.50012 11.9838 9.49999 11.9398C9.49999 11.6866 9.28606 11.5065 8.97575 11.5065H8.85453C7.3865 11.7287 6.29999 12.8995 6.29999 14.2731C6.29999 15.8409 7.70485 17.1004 9.43029 17.1004C11.1557 17.1004 12.5606 15.8409 12.5606 14.2731V9.72766C12.5606 8.78198 13.4574 8.00948 14.5818 8.00948C15.7062 8.00948 16.603 8.78198 16.603 9.72766C16.603 10.5131 16.0164 11.1824 15.1644 11.388C14.8714 11.4531 14.6274 11.6502 14.5202 11.9004C14.3686 12.2415 14.6025 12.5246 15.006 12.5246Z" fill="black"/>
</svg>
