<svg width="16" height="16" viewBox="0 0 16 16" fill="none" xmlns="http://www.w3.org/2000/svg">
<path fill-rule="evenodd" clip-rule="evenodd" d="M3.23307 2.00004C3.23307 1.63185 3.53155 1.33337 3.89974 1.33337H12.0996C12.4678 1.33337 12.7663 1.63185 12.7663 2.00004V2.13337H3.23307V2.00004ZM2.8 5.46648V13.4665H13.2V5.46648H2.8ZM2.66667 4.66648C2.29848 4.66648 2 4.96496 2 5.33315V13.5998C2 13.968 2.29848 14.2665 2.66667 14.2665H13.3333C13.7015 14.2665 14 13.968 14 13.5998V5.33315C14 4.96496 13.7015 4.66648 13.3333 4.66648H2.66667ZM3.36641 3.00004C2.99822 3.00004 2.69974 3.29852 2.69974 3.66671V3.80004H13.2996V3.66671C13.2996 3.29852 13.0011 3.00004 12.6329 3.00004H3.36641Z" fill="black" fill-opacity="1"/>
</svg>
