<svg width="24" height="24" viewBox="0 0 24 24" fill="none" xmlns="http://www.w3.org/2000/svg">
<path d="M20 9.5C21.1046 9.5 22 10.3954 22 11.5V17.5C22 18.6046 21.1046 19.5 20 19.5H19.5039V21.9404C19.5039 22.363 19.0127 22.5948 18.6865 22.3262L15.2549 19.5H10C8.89543 19.5 8 18.6046 8 17.5V11.5C8 10.3954 8.89543 9.5 10 9.5H20ZM10 10.7002C9.55817 10.7002 9.2002 11.0582 9.2002 11.5V17.5C9.2002 17.9418 9.55817 18.2998 10 18.2998H15.6855L16.0176 18.5732L18.3037 20.4551V18.2998H20C20.4418 18.2998 20.7998 17.9418 20.7998 17.5V11.5C20.7998 11.0582 20.4418 10.7002 20 10.7002H10ZM14.5 3.5C15.6046 3.5 16.5 4.39543 16.5 5.5V8.5H15.2998V5.5C15.2998 5.08587 14.9853 4.74518 14.582 4.7041L14.5 4.7002H4C3.55817 4.7002 3.2002 5.05817 3.2002 5.5V11.5C3.2002 11.9418 3.55817 12.2998 4 12.2998H5.7002V14.4551L7 13.3848V14.9404L5.31738 16.3262C4.9912 16.5946 4.5 16.3629 4.5 15.9404V13.5H4C2.89543 13.5 2 12.6046 2 11.5V5.5C2 4.39543 2.89543 3.5 4 3.5H14.5Z" fill="black" style="fill:black;fill-opacity:1;"/>
</svg>
