<svg width="24" height="24" viewBox="0 0 24 24" fill="none" xmlns="http://www.w3.org/2000/svg">
<path d="M18.8934 9.24609C20.3128 9.24609 21.3774 9.62066 22.0674 10.4092C22.6588 11.0598 22.9742 11.9667 22.9742 13.1495V19.7144H21.8505V17.7627C21.4365 18.3541 20.8845 18.8667 20.2142 19.2609C19.3862 19.7341 18.4991 19.9904 17.5331 19.9904C16.5474 19.9904 15.7391 19.7341 15.1476 19.2412C14.4971 18.7287 14.1816 18.0387 14.1816 17.2107C14.1816 16.0278 14.6548 15.1604 15.6208 14.6084C16.4488 14.0761 17.6514 13.8001 19.1891 13.8001L21.7914 13.7607V13.1495C21.7914 11.2175 20.8056 10.2515 18.8342 10.2515C18.0062 10.2515 17.3359 10.4092 16.8036 10.7641C16.2122 11.1387 15.8376 11.671 15.6799 12.3807L14.5168 12.3018C14.7139 11.2767 15.2265 10.4881 16.0545 9.97552C16.7839 9.48266 17.7302 9.24609 18.8934 9.24609ZM21.7914 14.6872L19.2482 14.7267C16.6656 14.7464 15.3842 15.5744 15.3842 17.1909C15.3842 17.7429 15.6011 18.1767 16.0348 18.5118C16.4685 18.8469 17.0599 19.0244 17.7696 19.0244C18.7948 19.0244 19.7411 18.6695 20.5691 17.9598C21.3774 17.2895 21.7914 16.5404 21.7914 15.7518V14.6872Z" fill="black" style="fill:black;fill-opacity:1;"/>
<path d="M6.28477 5.63867H7.7042L13.3425 19.7147H12.0216L10.3853 15.5155H3.60363L1.96734 19.7147H0.646484L6.28477 5.63867ZM3.99791 14.4904H9.99105L7.03391 6.93982H6.97477L3.99791 14.4904Z" fill="black" style="fill:black;fill-opacity:1;"/>
</svg>
