<svg width="24" height="24" viewBox="0 0 24 24" fill="none" xmlns="http://www.w3.org/2000/svg">
<path d="M7.80078 6.7C7.80078 4.3804 9.68119 2.5 12.0008 2.5C14.3204 2.5 16.2008 4.3804 16.2008 6.7V12.3C16.2008 14.6196 14.3204 16.5 12.0008 16.5C9.68119 16.5 7.80078 14.6196 7.80078 12.3V6.7Z" fill="black"/>
<path d="M6 11V12.5C6 15.8137 8.68629 18.5 12 18.5C15.3137 18.5 18 15.8137 18 12.5V11H20V12.5C20 16.5796 16.9463 19.946 13 20.4381V23H11V20.4381C7.05369 19.946 4 16.5796 4 12.5V11H6Z" fill="black"/>
</svg>
