<svg width="24" height="24" viewBox="0 0 24 24" fill="none" xmlns="http://www.w3.org/2000/svg">
<path d="M5.75 12.5C5.75 15.9518 8.54822 18.75 12 18.75C15.4518 18.75 18.25 15.9518 18.25 12.5V11H19.75V12.5C19.75 16.5272 16.6782 19.8356 12.75 20.2129V23H11.25V20.2129C7.32176 19.8356 4.25 16.5272 4.25 12.5V11H5.75V12.5Z" fill="black"/>
<path fill-rule="evenodd" clip-rule="evenodd" d="M12 2C14.4853 2 16.5 4.01472 16.5 6.5V12.5L16.4941 12.7314C16.3737 15.1092 14.4077 17 12 17C9.59234 17 7.62632 15.1092 7.50586 12.7314L7.5 12.5V6.5C7.5 4.01472 9.51472 2 12 2ZM12 3.5C10.3431 3.5 9 4.84315 9 6.5V12.5C9 14.1569 10.3431 15.5 12 15.5C13.6569 15.5 15 14.1569 15 12.5V6.5C15 4.84315 13.6569 3.5 12 3.5Z" fill="black"/>
</svg>
