<svg width="24" height="24" viewBox="0 0 24 24" fill="none" xmlns="http://www.w3.org/2000/svg">
<path fill-rule="evenodd" clip-rule="evenodd" d="M12 2C9.51472 2 7.5 4.01472 7.5 6.5V12.5C7.5 14.9853 9.51472 17 12 17C14.4853 17 16.5 14.9853 16.5 12.5V6.5C16.5 4.01472 14.4853 2 12 2ZM9.5 6.5C9.5 5.11929 10.6193 4 12 4C13.3807 4 14.5 5.11929 14.5 6.5V12.5C14.5 13.8807 13.3807 15 12 15C10.6193 15 9.5 13.8807 9.5 12.5V6.5Z" fill="black"/>
<path d="M6 11V12.5C6 15.8137 8.68629 18.5 12 18.5C15.3137 18.5 18 15.8137 18 12.5V11H20V12.5C20 16.5796 16.9463 19.946 13 20.4381V23H11V20.4381C7.05369 19.946 4 16.5796 4 12.5V11H6Z" fill="black"/>
</svg>
