<svg width="32" height="32" viewBox="0 0 32 32" fill="none" xmlns="http://www.w3.org/2000/svg">
<path d="M9.34081 8.177H20.0064V9.777H9.34081V8.177Z" fill="black"/>
<path d="M20.0064 12.8556H9.34081V14.4556H20.0064V12.8556Z" fill="black"/>
<path fill-rule="evenodd" clip-rule="evenodd" d="M6.66633 2.6665L25.332 2.6665C26.0684 2.6665 26.6653 3.26346 26.6653 3.99984L26.6643 27.8982C26.6643 28.6346 26.0674 29.2315 25.331 29.2315H6.66536C5.92898 29.2315 5.33203 28.6346 5.33203 27.8982L5.333 3.99984C5.333 3.26346 5.92995 2.6665 6.66633 2.6665ZM6.93203 27.6315L6.933 4.2665H25.0653C25.0653 29.9661 25.0659 8.50647 25.0643 27.6315H6.93203Z" fill="black"/>
<path d="M14.6341 17.5217H9.34081V19.1217H14.6341V17.5217Z" fill="black"/>
</svg>
