<svg width="24" height="24" viewBox="0 0 24 24" fill="none" xmlns="http://www.w3.org/2000/svg">
<g clip-path="url(#clip0_933_589)">
<path d="M7.1 4.79934C4.914 6.44131 3.5 9.05553 3.5 12C3.5 16.9706 7.52944 21 12.5 21C17.4706 21 21.5 16.9706 21.5 12C21.5 7.03279 17.476 3.00544 12.5101 3.00001C12.5045 3 12.5 3.00448 12.5 3.01V7" stroke="white" stroke-width="1.5"/>
<path d="M11.8695 12.6508L8.00096 8.99774C7.95641 8.95568 8.00332 8.88318 8.05995 8.90657L12.9777 10.9378C13.6041 11.1966 13.8182 11.9768 13.4115 12.519C13.0399 13.0145 12.3198 13.076 11.8695 12.6508Z" fill="white"/>
</g>
<defs>
<clipPath id="clip0_933_589">
<rect width="24" height="24" fill="white"/>
</clipPath>
</defs>
</svg>
