<svg width="24" height="24" viewBox="0 0 24 24" fill="none" xmlns="http://www.w3.org/2000/svg">
<path d="M15.251 1.75C16.2879 1.74999 17.11 1.75024 17.7734 1.80176C18.4515 1.85442 19.0268 1.96392 19.5557 2.21777C20.529 2.68516 21.3148 3.471 21.7822 4.44434C22.0361 4.9732 22.1456 5.54851 22.1982 6.22656C22.2498 6.89003 22.25 7.7121 22.25 8.74902V10.251C22.25 11.2879 22.2498 12.11 22.1982 12.7734C22.1456 13.4515 22.0361 14.0268 21.7822 14.5557C21.3148 15.529 20.529 16.3148 19.5557 16.7822C19.0268 17.0361 18.4515 17.1456 17.7734 17.1982C17.11 17.2498 16.2879 17.25 15.251 17.25H12.6387L8.91406 21.834C8.02345 22.9296 6.25003 22.2998 6.25 20.8877V17.2002C5.55625 17.1479 4.97352 17.0362 4.44434 16.7822C3.47101 16.3148 2.68516 15.529 2.21777 14.5557C1.96392 14.0268 1.85442 13.4515 1.80176 12.7734C1.75024 12.11 1.74999 11.2879 1.75 10.251V8.74902C1.74999 7.71211 1.75024 6.89002 1.80176 6.22656C1.85442 5.54851 1.96392 4.9732 2.21777 4.44434C2.68516 3.47101 3.47101 2.68516 4.44434 2.21777C4.9732 1.96392 5.54851 1.85442 6.22656 1.80176C6.89002 1.75024 7.71211 1.74999 8.74902 1.75H15.251ZM8.78027 3.25C7.70516 3.25 6.94133 3.2504 6.34277 3.29688C5.75229 3.34274 5.38464 3.43016 5.09277 3.57031C4.42708 3.89007 3.89007 4.42708 3.57031 5.09277C3.43016 5.38464 3.34274 5.75229 3.29688 6.34277C3.2504 6.94133 3.25 7.70516 3.25 8.78027V10.2197C3.25 11.2948 3.2504 12.0587 3.29688 12.6572C3.34274 13.2477 3.43016 13.6154 3.57031 13.9072C3.89007 14.5729 4.42708 15.1099 5.09277 15.4297C5.4907 15.6208 6.01309 15.7081 7.02051 15.7363C7.42639 15.7477 7.75 16.0803 7.75 16.4863V20.8877L11.6992 16.0273C11.8416 15.8521 12.0554 15.75 12.2812 15.75H15.2197C16.2948 15.75 17.0587 15.7496 17.6572 15.7031C18.2477 15.6573 18.6154 15.5698 18.9072 15.4297C19.5729 15.1099 20.1099 14.5729 20.4297 13.9072C20.5698 13.6154 20.6573 13.2477 20.7031 12.6572C20.7496 12.0587 20.75 11.2948 20.75 10.2197V8.78027C20.75 7.70516 20.7496 6.94133 20.7031 6.34277C20.6573 5.75229 20.5698 5.38464 20.4297 5.09277C20.1099 4.42708 19.5729 3.89007 18.9072 3.57031C18.6154 3.43016 18.2477 3.34274 17.6572 3.29688C17.0587 3.2504 16.2948 3.25 15.2197 3.25H8.78027Z" fill="black" fill-opacity="1"/>
</svg>
