<svg width="24" height="24" viewBox="0 0 24 24" fill="none" xmlns="http://www.w3.org/2000/svg">
<path d="M4.5 5.5H19.5V6.7H4.5V5.5Z" fill="black" fill-opacity="1"/>
<path d="M16 11H4.5V12.2H15.5L16 11Z" fill="black" fill-opacity="1"/>
<path d="M15 16.5H4.5V17.7H15.5L15 16.5Z" fill="black" fill-opacity="1"/>
<path d="M18.8359 11.9435C18.8923 11.7912 19.1077 11.7912 19.1641 11.9435L19.9267 14.0044C19.9385 14.0363 19.9637 14.0615 19.9956 14.0733L22.0565 14.8359C22.2088 14.8923 22.2088 15.1077 22.0565 15.1641L19.9956 15.9267C19.9637 15.9385 19.9385 15.9637 19.9267 15.9956L19.1641 18.0565C19.1077 18.2088 18.8923 18.2088 18.8359 18.0565L18.0733 15.9956C18.0615 15.9637 18.0363 15.9385 18.0044 15.9267L15.9435 15.1641C15.7912 15.1077 15.7912 14.8923 15.9435 14.8359L18.0044 14.0733C18.0363 14.0615 18.0615 14.0363 18.0733 14.0044L18.8359 11.9435Z" fill="black" fill-opacity="1"/>
</svg>
