<svg xmlns="http://www.w3.org/2000/svg" width="48" height="48" fill="none"><path fill="#e3e8d9" d="M10.6 48h26.8c1.96 0 2.94 0 3.689-.382a3.5 3.5 0 0 0 1.53-1.529C43 45.34 43 44.36 43 42.4V15.32c0-.857 0-1.284-.097-1.687a3.5 3.5 0 0 0-.419-1.012c-.216-.353-.519-.656-1.124-1.261l-9.72-9.72c-.605-.605-.908-.908-1.261-1.124a3.5 3.5 0 0 0-1.012-.42C28.965 0 28.537 0 27.68 0H10.6C8.64 0 7.66 0 6.911.381a3.5 3.5 0 0 0-1.53 1.53C5 2.66 5 3.64 5 5.6v36.8c0 1.96 0 2.94.381 3.689a3.5 3.5 0 0 0 1.53 1.53C7.66 48 8.64 48 10.6 48"/><path fill="#f7f8f4" d="M16.352 23.672L16.708 23.37L17.091 23.102L17.498 22.871L17.924 22.68L18.366 22.529L18.821 22.42L19.283 22.355L19.75 22.333L20.217 22.355L20.679 22.42L21.134 22.529L21.576 22.68L22.002 22.871L22.409 23.102L22.792 23.37L23.148 23.672C23.372 23.882 23.5 24.174 23.5 24.481L23.5 33.506L23.472 33.692L23.393 33.861L23.269 34.002L23.109 34.1L22.928 34.15L22.741 34.145L22.562 34.087L22.408 33.981L22.129 33.744L21.83 33.535L21.512 33.355L21.178 33.205L20.833 33.087L20.477 33.002L20.115 32.951L19.75 32.933L19.385 32.951L19.023 33.002L18.667 33.087L18.322 33.205L17.988 33.355L17.67 33.535L17.371 33.744L17.092 33.981L16.938 34.087L16.759 34.145L16.572 34.15L16.391 34.1L16.231 34.002L16.107 33.861L16.028 33.692L16 33.506L16 24.481C16 24.174 16.128 23.881 16.352 23.672"/><path fill="#f7f8f4" d="M24.852 23.672L25.208 23.37L25.591 23.102L25.998 22.871L26.424 22.68L26.866 22.529L27.321 22.42L27.783 22.355L28.25 22.333L28.717 22.355L29.179 22.42L29.634 22.529L30.076 22.68L30.502 22.871L30.909 23.102L31.292 23.37L31.648 23.672C31.872 23.882 32 24.174 32 24.481L32 33.506L31.972 33.692L31.893 33.861L31.769 34.002L31.609 34.1L31.428 34.15L31.241 34.145L31.062 34.087L30.908 33.981L30.629 33.744L30.33 33.535L30.012 33.355L29.678 33.205L29.333 33.087L28.977 33.002L28.615 32.951L28.25 32.933L27.885 32.951L27.523 33.002L27.167 33.087L26.822 33.205L26.488 33.355L26.17 33.535L25.871 33.744L25.592 33.981L25.438 34.087L25.259 34.145L25.072 34.15L24.891 34.1L24.731 34.002L24.607 33.861L24.528 33.692L24.5 33.506L24.5 24.481C24.5 24.174 24.628 23.881 24.852 23.672"/><path fill="#dce0d3" d="M28.55 0a3.5 3.5 0 0 1 2.475 1.025l10.95 10.95A3.5 3.5 0 0 1 43 14.45v.05a1.5 1.5 0 0 0-1.492-1.5h-9.775A1.733 1.733 0 0 1 30 11.267V1.5A1.5 1.5 0 0 0 28.5 0z"/></svg>