<svg width="24" height="24" viewBox="0 0 24 24" fill="none" xmlns="http://www.w3.org/2000/svg">
<path d="M3.49976 9.05314C3.49976 8.44563 3.99224 7.95314 4.59976 7.95314C5.20727 7.95314 5.69976 8.44563 5.69976 9.05314V14.8531C5.69976 15.4607 5.20727 15.9531 4.59976 15.9531C3.99224 15.9531 3.49976 15.4607 3.49976 14.8531V9.05314Z" fill="black" style="fill:black;fill-opacity:1;"/>
<path d="M8.43866 4.85935C8.43866 4.25184 8.93115 3.75935 9.53866 3.75935C10.1462 3.75935 10.6387 4.25184 10.6387 4.85935V18.5344C10.6387 19.142 10.1462 19.6344 9.53866 19.6344C8.93115 19.6344 8.43866 19.142 8.43866 18.5344V4.85935Z" fill="black" style="fill:black;fill-opacity:1;"/>
<path d="M13.3776 7.55314C13.3776 6.94563 13.8701 6.45314 14.4776 6.45314C15.0851 6.45314 15.5776 6.94563 15.5776 7.55314V15.9996C15.5776 16.6071 15.0851 17.0996 14.4776 17.0996C13.8701 17.0996 13.3776 16.6071 13.3776 15.9996V7.55314Z" fill="black" style="fill:black;fill-opacity:1;"/>
<path d="M18.3165 10.5737C18.3165 9.9662 18.809 9.47371 19.4165 9.47371C20.024 9.47371 20.5165 9.9662 20.5165 10.5737V13.1031C20.5165 13.7107 20.024 14.2031 19.4165 14.2031C18.809 14.2031 18.3165 13.7107 18.3165 13.1031V10.5737Z" fill="black" style="fill:black;fill-opacity:1;"/>
</svg>
