<svg width="24" height="24" viewBox="0 0 24 24" xmlns="http://www.w3.org/2000/svg" xmlns:xlink="http://www.w3.org/1999/xlink"><title>icons_outlined_sort</title><g id="icons_outlined_sort" stroke="none" stroke-width="1" fill="none" fill-rule="evenodd"><g id="icon28"/><g id="编组" transform="translate(3.000000, 3.000000)" fill="#000" fill-rule="nonzero"><path d="M7 0C7.55228475.0 8 .44771525 8 1V7C8 7.55228475 7.55228475 8 7 8H1C.44771525 8 0 7.55228475.0 7V1C0 .44771525.44771525.0 1 0H7zM6.8 1.2H1.2V6.8H6.8V1.2z" id="矩形"/><path d="M16.5.0C17.0522847.0 17.5.44771525 17.5 1V7C17.5 7.55228475 17.0522847 8 16.5 8h-6C9.94771525 8 9.5 7.55228475 9.5 7V1C9.5.44771525 9.94771525.0 10.5.0h6zM16.3 1.2H10.7V6.8H16.3V1.2z" id="矩形备份-3"/><path d="M7 9.5C7.55228475 9.5 8 9.94771525 8 10.5v6C8 17.0522847 7.55228475 17.5 7 17.5H1C.44771525 17.5.0 17.0522847.0 16.5v-6C0 9.94771525.44771525 9.5 1 9.5H7zM6.8 10.7H1.2V16.3H6.8V10.7z" id="矩形备份"/><path d="M16.5 9.5C17.0522847 9.5 17.5 9.94771525 17.5 10.5v6C17.5 17.0522847 17.0522847 17.5 16.5 17.5h-6C9.94771525 17.5 9.5 17.0522847 9.5 16.5v-6C9.5 9.94771525 9.94771525 9.5 10.5 9.5h6zM16.3 10.7H10.7V16.3H16.3V10.7z" id="矩形备份-2"/></g></g></svg>