<svg xmlns="http://www.w3.org/2000/svg" width="48" height="48" fill="none"><path fill="#cfd9e2" d="M10.6 48h26.8c1.96 0 2.94 0 3.689-.382a3.5 3.5 0 0 0 1.53-1.529C43 45.34 43 44.36 43 42.4V15.32c0-.857 0-1.284-.097-1.687a3.5 3.5 0 0 0-.419-1.012c-.216-.353-.519-.656-1.124-1.261l-9.72-9.72c-.605-.605-.908-.908-1.261-1.124a3.5 3.5 0 0 0-1.012-.42C28.965 0 28.537 0 27.68 0H10.6C8.64 0 7.66 0 6.911.381a3.5 3.5 0 0 0-1.53 1.53C5 2.66 5 3.64 5 5.6v36.8c0 1.96 0 2.94.381 3.689a3.5 3.5 0 0 0 1.53 1.53C7.66 48 8.64 48 10.6 48"/><path fill="#f1f4f6" d="M24.701 36.8h3.3v1.4h-8v-1.4h3.3v-7.3h1.4z"/><path fill="#f1f4f6" fill-rule="evenodd" d="M29.172 20.5c.472 0 .709 0 .901.085a1 1 0 0 1 .421.35c.12.173.163.406.25.87l.99 5.274c.09.488.136.732.069.922a.75.75 0 0 1-.33.397c-.175.102-.423.102-.92.102H17.446c-.495 0-.744 0-.919-.102a.75.75 0 0 1-.33-.397c-.067-.19-.022-.435.07-.922l.989-5.274c.087-.464.13-.697.25-.87a1 1 0 0 1 .42-.35c.194-.085.43-.085.902-.085zm-4.271 4.023-2.511-2.007-2.438 3.047 1.094.875 1.563-1.954 2.489 1.992 2.94-3.528-1.077-.896z" clip-rule="evenodd"/><path fill="#cbd3db" d="M28.55 0a3.5 3.5 0 0 1 2.475 1.025l10.95 10.95A3.5 3.5 0 0 1 43 14.45v.05a1.5 1.5 0 0 0-1.492-1.5h-9.775A1.733 1.733 0 0 1 30 11.267V1.5A1.5 1.5 0 0 0 28.5 0z"/></svg>