<svg width="40" height="40" viewBox="0 0 40 40" xmlns="http://www.w3.org/2000/svg" xmlns:xlink="http://www.w3.org/1999/xlink"><title>个人认证高级</title><g id="个人认证高级" stroke="none" stroke-width="1" fill="none" fill-rule="evenodd"><g id="认证icon" transform="translate(3.571429, 3.571429)"><g id="编组-19" fill="#f7b500"><path d="M23.7346495.958176058 26.1264204 6.73125529 31.8989668 9.1224934C32.4976538 9.37047766 32.7819545 10.0568403 32.5339702 10.6555273L30.1426367 16.4272591 32.5339702 22.2016156C32.7819545 22.8003026 32.4976538 23.4866652 31.8989668 23.7346495L26.125226 26.1261464 23.7346495 31.8989668C23.4866652 32.4976538 22.8003026 32.7819545 22.2016156 32.5339702L16.4292222 30.1423626 10.6555273 32.5339702C10.0568403 32.7819545 9.37047766 32.4976538 9.1224934 31.8989668L6.73033491 26.124952.958176058 23.7346495C.359489089 23.4866652.0751883717 22.8003026.323172634 22.2016156L2.71411865 16.4289482.323172634 10.6555273C.0751883717 10.0568403.359489089 9.37047766.958176058 9.1224934L6.73152932 6.73006088 9.1224934.958176058C9.37047766.359489089 10.0568403.0751883717 10.6555273.323172634L16.4275331 2.71384462 22.2016156.323172634C22.8003026.0751883717 23.4866652.359489089 23.7346495.958176058z" id="形状结合"/></g><path d="M14.4676336 19.9940991l9.3321945-9.3321944L25.5707073 12.432784 15.2257424 22.7734506C14.8092125 23.1900392 14.1338365 23.1898989 13.7173639 22.7732531 13.7173252 22.7732144 13.7172866 22.7731757 13.7173639 22.7730212L8.0952381 17.1468289v0L9.85780074 15.3842662 14.4676336 19.9940991z" id="Combined-Shape" fill="#fff"/></g></g></svg>