<svg width="24" height="24" viewBox="0 0 24 24" xmlns="http://www.w3.org/2000/svg" xmlns:xlink="http://www.w3.org/1999/xlink"><title>icons_filled_channels_authentication_enterprise</title><g id="icons_filled_channels_authentication_enterprise" stroke="none" stroke-width="1" fill="none" fill-rule="evenodd"><ellipse id="椭圆形" fill="#fff" cx="12.5" cy="12" rx="6.5" ry="5"/><path d="M16.3795309 2.71364682 17.8141156 6.17707997 21.2781213 7.61223722C21.6373334 7.76102778 21.8079139 8.17284537 21.6591233 8.53205755L20.2240619 11.9952049 21.6591233 15.4597105C21.8079139 15.8189227 21.6373334 16.2307403 21.2781213 16.3795309L17.8139216 17.8137982 16.3795309 21.2781213C16.2307403 21.6373334 15.8189227 21.8079139 15.4597105 21.6591233L11.9957967 20.2237444 8.53205755 21.6591233C8.17284537 21.8079139 7.76102778 21.6373334 7.61223722 21.2781213L6.17720344 17.8136041 2.71364682 16.3795309C2.35443464 16.2307403 2.18385421 15.8189227 2.33264476 15.4597105l1.43461245-3.4642313L2.33264476 8.53205755C2.18385421 8.17284537 2.35443464 7.76102778 2.71364682 7.61223722L6.17739746 6.17688595 7.61223722 2.71364682C7.76102778 2.35443464 8.17284537 2.18385421 8.53205755 2.33264476L11.9955223 3.76693971 15.4597105 2.33264476C15.8189227 2.18385421 16.2307403 2.35443464 16.3795309 2.71364682zM16.422754 8.53999996 10.8234373 14.1393166 8.05753759 11.3734169 7 12.4309545 10.3732755 15.8066699v0L10.4525902 15.874308C10.7026511 16.0543129 11.0533764 16.0318853 11.2783026 15.8069275v0L17.4852815 9.60252752 16.422754 8.53999996z" id="形状结合" fill="#0075e2"/></g></svg>