<svg width="48" height="48" viewBox="0 0 48 48" fill="none" xmlns="http://www.w3.org/2000/svg">
<path d="M10.6 48H37.4C39.36 48 40.34 48 41.089 47.618C41.7476 47.2827 42.2832 46.7474 42.619 46.089C43 45.34 43 44.36 43 42.4V15.32C43 14.463 43 14.036 42.903 13.633C42.8173 13.2758 42.6759 12.9343 42.484 12.621C42.268 12.268 41.965 11.965 41.36 11.36L31.64 1.64C31.035 1.035 30.732 0.732 30.379 0.516C30.0658 0.323739 29.7243 0.182002 29.367 0.096C28.965 0 28.537 0 27.68 0H10.6C8.64 0 7.66 0 6.911 0.381C6.2522 0.716597 5.7166 1.2522 5.381 1.911C5 2.66 5 3.64 5 5.6V42.4C5 44.36 5 45.34 5.381 46.089C5.7166 46.7478 6.2522 47.2834 6.911 47.619C7.66 48 8.64 48 10.6 48Z" fill="#C0C7D8"/>
<path d="M28.55 9.11097e-09C29.0096 -3.31544e-05 29.4648 0.0904691 29.8894 0.266339C30.3141 0.442209 30.7 0.700003 31.025 1.025L41.975 11.975C42.3002 12.2999 42.5581 12.6857 42.734 13.1104C42.9098 13.5351 43.0003 13.9903 43 14.45V14.5C43 14.1036 42.8431 13.7232 42.5635 13.4422C42.2839 13.1611 41.9044 13.0021 41.508 13H31.733C31.5054 13 31.2801 12.9552 31.0698 12.8681C30.8596 12.781 30.6685 12.6533 30.5076 12.4924C30.3467 12.3315 30.219 12.1404 30.1319 11.9302C30.0448 11.7199 30 11.4946 30 11.267V1.5C30 1.10218 29.842 0.720644 29.5607 0.43934C29.2794 0.158035 28.8978 9.11097e-09 28.5 9.11097e-09L28.55 9.11097e-09Z" fill="#B1B7C7"/>
<path d="M25.9854 24.8354H29.1465C31.7808 24.8354 33.0249 26.4097 33.0249 29.1455C33.0249 31.9004 31.7617 33.5 29.1465 33.5H25.9854V24.8354ZM27.6992 26.2319V32.0972H28.918C30.5303 32.0972 31.2603 31.1323 31.2603 29.1772C31.2603 27.2222 30.5239 26.2319 28.918 26.2319H27.6992Z" fill="#AAB4CA"/>
<path d="M16.9746 33.5H15.4448V24.8354H17.1904L19.6597 30.4595H19.7168L22.186 24.8354H23.9189V33.5H22.3701V27.7363H22.2876L20.2373 32.4146H19.1201L17.0571 27.7363H16.9746V33.5Z" fill="#AAB4CA"/>
</svg>
