<svg xmlns="http://www.w3.org/2000/svg" width="48" height="48" fill="none"><path fill="#454654" d="M10.6 48h26.8c1.96 0 2.94 0 3.689-.382a3.5 3.5 0 0 0 1.53-1.529C43 45.34 43 44.36 43 42.4V15.32c0-.857 0-1.284-.097-1.687a3.5 3.5 0 0 0-.419-1.012c-.216-.353-.519-.656-1.124-1.261l-9.72-9.72c-.605-.605-.908-.908-1.261-1.124a3.5 3.5 0 0 0-1.012-.42C28.965 0 28.537 0 27.68 0H10.6C8.64 0 7.66 0 6.911.381a3.5 3.5 0 0 0-1.53 1.53C5 2.66 5 3.64 5 5.6v36.8c0 1.96 0 2.94.381 3.689a3.5 3.5 0 0 0 1.53 1.53C7.66 48 8.64 48 10.6 48"/><path fill="#606064" d="M29.408 24.926c-1.208-1.025-2.95-1.025-3.983-2.183a2.05 2.05 0 0 1-.517-1.184c-.05-.4-.475-.491-.733-.325-.017.009-.034.017-.042.034a.4.4 0 0 0-.1.116c-.133.192-.208.5-.208 1v6.5c0 2.9-.575 2.284-2.409 2.75-1.35.342-2.475 1.25-2.475 2.642s1.234 2.55 2.667 2.5c3.567-.108 3.458-3.892 3.458-5.35v-5.883c.05-1.134.85-.859 2.375-.3.442.175.867.366 1.242.625 1.483 1.008.742 2.791-.633 3.516-.167.092-.075.342.108.309 2.108-.367 3.308-3.184 1.25-4.767"/><path fill="#40404c" d="M28.55 0a3.5 3.5 0 0 1 2.475 1.025l10.95 10.95A3.5 3.5 0 0 1 43 14.45v.05a1.5 1.5 0 0 0-1.492-1.5h-9.775A1.733 1.733 0 0 1 30 11.267V1.5A1.5 1.5 0 0 0 28.5 0z"/></svg>