<svg width="48" height="48" viewBox="0 0 48 48" fill="none" xmlns="http://www.w3.org/2000/svg">
<path d="M10.6 48H37.4C39.3602 48 40.3403 48 41.089 47.6185C41.7475 47.283 42.283 46.7475 42.6185 46.089C43 45.3403 43 44.3602 43 42.4V15.3196C43 14.4635 43 14.0355 42.9033 13.6327C42.8176 13.2756 42.6761 12.9342 42.4842 12.621C42.2678 12.2678 41.9651 11.9651 41.3598 11.3598L31.6402 1.6402L31.6402 1.64018C31.0349 1.03486 30.7322 0.732203 30.379 0.515759C30.0658 0.323859 29.7244 0.182444 29.3673 0.0967053C28.9645 0 28.5365 0 27.6804 0H10.6C8.63982 0 7.65972 0 6.91103 0.381477C6.25247 0.717034 5.71703 1.25247 5.38148 1.91103C5 2.65972 5 3.63982 5 5.6V42.4C5 44.3602 5 45.3403 5.38148 46.089C5.71703 46.7475 6.25247 47.283 6.91103 47.6185C7.65972 48 8.63982 48 10.6 48Z" fill="#DDE1EA"/>
<path d="M28.5503 0C29.2497 0 29.9275 0.209352 30.5 0.593355C30.6873 0.718989 30.8633 0.86334 31.0251 1.02515L41.9749 11.9749C42.1367 12.1367 42.281 12.3127 42.4066 12.5C42.7906 13.0725 43 13.7503 43 14.4497V14.5C43 13.6743 42.3329 13.0044 41.5082 13H31.7333C30.776 13 30 12.224 30 11.2667V1.5C30 0.671573 29.3284 0 28.5 0H28.5503Z" fill="#CBCFD7"/>
</svg>
