<svg width="24" height="24" viewBox="0 0 24 24" xmlns="http://www.w3.org/2000/svg" xmlns:xlink="http://www.w3.org/1999/xlink"><title>icons_outlined_note</title><desc>Created with Sketch.</desc><defs/><g id="icons_outlined_note" stroke="none" stroke-width="1" fill="none" fill-rule="evenodd"><g id="Group" fill="#000" fill-rule="nonzero"><path d="M8.20000005 3.2V17.8092926H18C18.4418278 17.8092926 18.8 17.4511204 18.8 17.0092926V15.2000122 4C18.8 3.5581722 18.4418278 3.2 18 3.2H8.20000005zM7 3.2H5.2V17.8092926H7V3.2zM18.8 18.8428752C18.5550151 18.9499136 18.2844419 19.0092926 18 19.0092926H5.2V20.8H18C18.4418278 20.8 18.8 20.4418278 18.8 20V18.8428752zM4 2H18C19.1045695 2 20 2.8954305 20 4V20C20 21.1045695 19.1045695 22 18 22H4V2z" id="Fill-55"/></g></g></svg>