<svg xmlns="http://www.w3.org/2000/svg" width="48" height="48" fill="none"><path fill="#444d54" d="M10.6 48h26.8c1.96 0 2.94 0 3.689-.382a3.5 3.5 0 0 0 1.53-1.529C43 45.34 43 44.36 43 42.4V15.32c0-.857 0-1.284-.097-1.687a3.5 3.5 0 0 0-.419-1.012c-.216-.353-.519-.656-1.124-1.261l-9.72-9.72c-.605-.605-.908-.908-1.261-1.124a3.5 3.5 0 0 0-1.012-.42C28.965 0 28.537 0 27.68 0H10.6C8.64 0 7.66 0 6.911.381a3.5 3.5 0 0 0-1.53 1.53C5 2.66 5 3.64 5 5.6v36.8c0 1.96 0 2.94.381 3.689a3.5 3.5 0 0 0 1.53 1.53C7.66 48 8.64 48 10.6 48"/><path fill="#606264" fill-rule="evenodd" d="M16.32 24.67c2.316 0 3.706 1.5 3.706 3.95v1.11c0 2.443-1.39 3.935-3.707 3.935s-3.713-1.492-3.713-3.935v-1.11c0-2.464 1.396-3.95 3.713-3.95m0 1.429c-1.15 0-1.968.838-1.968 2.507v1.13c0 1.67.819 2.501 1.967 2.501 1.143 0 1.968-.832 1.968-2.5v-1.13c0-1.67-.825-2.508-1.968-2.508" clip-rule="evenodd"/><path fill="#606264" d="M27.116 26.251h-3.808v2.419h3.478v1.384h-3.478V33.5h-1.714v-8.664h5.522z"/><path fill="#606264" fill-rule="evenodd" d="M31.618 24.836c2.634 0 3.88 1.574 3.88 4.31 0 2.754-1.265 4.354-3.88 4.354h-3.161v-8.664zm-1.447 7.262h1.219c1.612 0 2.342-.965 2.342-2.92s-.736-2.946-2.342-2.946h-1.22z" clip-rule="evenodd"/><path fill="#3f464c" d="M28.55 0a3.5 3.5 0 0 1 2.475 1.025l10.95 10.95A3.5 3.5 0 0 1 43 14.45v.05a1.5 1.5 0 0 0-1.492-1.5h-9.775A1.733 1.733 0 0 1 30 11.267V1.5A1.5 1.5 0 0 0 28.5 0z"/></svg>