<svg xmlns="http://www.w3.org/2000/svg" width="48" height="48" fill="none"><path fill="#d8e0e8" d="M10.6 48h26.8c1.96 0 2.94 0 3.689-.382a3.5 3.5 0 0 0 1.53-1.529C43 45.34 43 44.36 43 42.4V15.32c0-.857 0-1.284-.097-1.687a3.5 3.5 0 0 0-.419-1.012c-.216-.353-.519-.656-1.124-1.261l-9.72-9.72c-.605-.605-.908-.908-1.261-1.124a3.5 3.5 0 0 0-1.012-.42C28.965 0 28.537 0 27.68 0H10.6C8.64 0 7.66 0 6.911.381a3.5 3.5 0 0 0-1.53 1.53C5 2.66 5 3.64 5 5.6v36.8c0 1.96 0 2.94.381 3.689a3.5 3.5 0 0 0 1.53 1.53C7.66 48 8.64 48 10.6 48"/><path fill="#f3f6f8" d="M20.026 29.73c0 2.443-1.39 3.935-3.707 3.935s-3.713-1.492-3.713-3.935v-1.111c0-2.463 1.396-3.949 3.713-3.949s3.707 1.498 3.707 3.949zm-1.74-1.124c0-1.67-.824-2.507-1.967-2.507-1.149 0-1.968.837-1.968 2.507v1.13c0 1.67.82 2.5 1.968 2.5 1.143 0 1.968-.83 1.968-2.5zm5.022 4.894h-1.714v-8.665h5.523v1.416h-3.809v2.418h3.479v1.384h-3.479zm5.148-8.665h3.161c2.635 0 3.879 1.575 3.879 4.31 0 2.755-1.263 4.355-3.879 4.355h-3.16v-8.665zm1.714 1.397v5.865h1.219c1.612 0 2.342-.965 2.342-2.92s-.736-2.945-2.342-2.945z"/><path fill="#d2d9e0" d="M28.55 0a3.5 3.5 0 0 1 2.475 1.025l10.95 10.95A3.5 3.5 0 0 1 43 14.45v.05a1.5 1.5 0 0 0-1.492-1.5h-9.775A1.733 1.733 0 0 1 30 11.267V1.5A1.5 1.5 0 0 0 28.5 0z"/></svg>