<svg width="24" height="24" viewBox="0 0 24 24" fill="none" xmlns="http://www.w3.org/2000/svg">
<path d="M2.25 4.23068C2.25027 3.73057 2.73232 3.38836 3.18711 3.53366L3.2778 3.56927L7.2963 5.46393C9.69365 6.59383 11.226 9.02377 11.2261 11.6953V19.2706C11.2261 19.8041 10.6771 20.1562 10.1983 19.9307L6.17983 18.0432C3.78224 16.9133 2.25005 14.4748 2.25 11.803V4.23068Z" fill="black"/>
<path d="M20.8129 3.53366C21.2677 3.38836 21.7497 3.73057 21.75 4.23068V11.803C21.75 14.4748 20.2178 16.9133 17.8202 18.0432L13.8017 19.9307C13.3229 20.1562 12.7739 19.8041 12.7739 19.2706V11.6953C12.774 9.02378 14.3064 6.59383 16.7037 5.46393L20.7222 3.56927L20.8129 3.53366Z" fill="black"/>
</svg>
