<svg xmlns="http://www.w3.org/2000/svg" width="48" height="48" fill="none"><path fill="#FA9D3B" d="M10.6 48h26.8c1.96 0 2.94 0 3.689-.382a3.5 3.5 0 0 0 1.53-1.529C43 45.34 43 44.36 43 42.4V15.32c0-.857 0-1.284-.097-1.687a3.5 3.5 0 0 0-.419-1.012c-.216-.353-.519-.656-1.124-1.261l-9.72-9.72c-.605-.605-.908-.908-1.261-1.124a3.5 3.5 0 0 0-1.012-.42C28.965 0 28.537 0 27.68 0H10.6C8.64 0 7.66 0 6.911.381a3.5 3.5 0 0 0-1.53 1.53C5 2.66 5 3.64 5 5.6v36.8c0 1.96 0 2.94.381 3.689a3.5 3.5 0 0 0 1.53 1.53C7.66 48 8.64 48 10.6 48Z"/><path fill="#fff" d="M33 37H18l1-1h14v1ZM16.498 36.288l-.879.293a.375.375 0 0 1-.474-.474l.293-.88 1.06 1.06ZM23.574 29.928l-3.368 3.368c-1.173 1.173-2.139 1.922-2.866 2.302-.345.18-.753.072-1.028-.204-.276-.276-.385-.683-.204-1.028.38-.727 1.128-1.694 2.301-2.867l3.369-3.367 1.796 1.796ZM26.729 23.182c2.148-2.148 3.584-2.78 4.08-2.284s-.137 1.932-2.284 4.08l-4.242 4.242-1.796-1.796 4.242-4.242Z"/><path fill="#D58532" d="M28.55 0a3.5 3.5 0 0 1 2.475 1.025l10.95 10.95A3.496 3.496 0 0 1 43 14.45v.05a1.5 1.5 0 0 0-1.492-1.5h-9.775A1.733 1.733 0 0 1 30 11.267V1.5A1.5 1.5 0 0 0 28.5 0h.05Z"/></svg>