<svg xmlns="http://www.w3.org/2000/svg" width="48" height="48" fill="none"><path fill="#e7d7d7" d="M10.6 48h26.8c1.96 0 2.94 0 3.689-.382a3.5 3.5 0 0 0 1.53-1.529C43 45.34 43 44.36 43 42.4V15.32c0-.857 0-1.284-.097-1.687a3.5 3.5 0 0 0-.419-1.012c-.216-.353-.519-.656-1.124-1.261l-9.72-9.72c-.605-.605-.908-.908-1.261-1.124a3.5 3.5 0 0 0-1.012-.42C28.965 0 28.537 0 27.68 0H10.6C8.64 0 7.66 0 6.911.381a3.5 3.5 0 0 0-1.53 1.53C5 2.66 5 3.64 5 5.6v36.8c0 1.96 0 2.94.381 3.689a3.5 3.5 0 0 0 1.53 1.53C7.66 48 8.64 48 10.6 48"/><path fill="#f8f3f3" d="M16.704 24.835c1.873 0 2.927 1.27 2.927 2.889 0 1.631-1.067 2.869-2.94 2.869h-1.739V33.5h-1.714v-8.665zm7.367 0c2.635 0 3.88 1.575 3.88 4.31 0 2.755-1.265 4.355-3.88 4.355h-3.16v-8.665zm10.862 1.416h-3.809v2.419h3.479v1.384h-3.479V33.5H29.41v-8.665h5.523zm-12.309 5.847h1.219c1.612 0 2.342-.965 2.343-2.92s-.737-2.946-2.343-2.946h-1.219zm-7.678-2.85h1.428c.946 0 1.51-.56 1.51-1.524 0-.972-.564-1.524-1.51-1.524h-1.428z"/><path fill="#dfd2d2" d="M28.55 0a3.5 3.5 0 0 1 2.475 1.025l10.95 10.95A3.5 3.5 0 0 1 43 14.45v.05a1.5 1.5 0 0 0-1.492-1.5h-9.775A1.733 1.733 0 0 1 30 11.267V1.5A1.5 1.5 0 0 0 28.5 0z"/></svg>