<svg xmlns="http://www.w3.org/2000/svg" width="48" height="48" fill="none"><path fill="#353B4B" d="M10.6 48h26.8c1.96 0 2.94 0 3.689-.382a3.5 3.5 0 0 0 1.53-1.529C43 45.34 43 44.36 43 42.4V15.32c0-.857 0-1.284-.097-1.687a3.5 3.5 0 0 0-.419-1.012c-.216-.353-.519-.656-1.124-1.261l-9.72-9.72c-.605-.605-.908-.908-1.261-1.124a3.5 3.5 0 0 0-1.012-.42C28.965 0 28.537 0 27.68 0H10.6C8.64 0 7.66 0 6.911.381a3.5 3.5 0 0 0-1.53 1.53C5 2.66 5 3.64 5 5.6v36.8c0 1.96 0 2.94.381 3.689a3.5 3.5 0 0 0 1.53 1.53C7.66 48 8.64 48 10.6 48Z"/><path fill="#5F6881" fill-rule="evenodd" d="M16.494 23.334h15.014c.447 0 .827.4.827.895v11.542c0 .497-.37.896-.827.896H16.494c-.447 0-.826-.401-.826-.896V24.23c0-.496.37-.895.826-.895ZM30.668 31.4l-1.454-1.322a1.07 1.07 0 0 0-1.372-.014l-1.902 1.617-3.73-3.278c-.372-.326-.99-.341-1.376-.03l-3.5 2.83V25h13.334v6.401Z" clip-rule="evenodd"/><path fill="#2D3240" d="M28.55 0a3.5 3.5 0 0 1 2.475 1.025l10.95 10.95A3.496 3.496 0 0 1 43 14.45v.05a1.5 1.5 0 0 0-1.492-1.5h-9.775A1.733 1.733 0 0 1 30 11.267V1.5A1.5 1.5 0 0 0 28.5 0h.05Z"/></svg>