<svg xmlns="http://www.w3.org/2000/svg" width="48" height="48" fill="none"><path fill="#E14949" d="M10.6 48h26.8c1.96 0 2.94 0 3.689-.382a3.5 3.5 0 0 0 1.53-1.529C43 45.34 43 44.36 43 42.4V15.32c0-.857 0-1.284-.097-1.687a3.5 3.5 0 0 0-.419-1.012c-.216-.353-.519-.656-1.124-1.261l-9.72-9.72c-.605-.605-.908-.908-1.261-1.124a3.5 3.5 0 0 0-1.012-.42C28.965 0 28.537 0 27.68 0H10.6C8.64 0 7.66 0 6.911.381a3.5 3.5 0 0 0-1.53 1.53C5 2.66 5 3.64 5 5.6v36.8c0 1.96 0 2.94.381 3.689a3.5 3.5 0 0 0 1.53 1.53C7.66 48 8.64 48 10.6 48Z"/><path fill="#fff" d="M24.855 22.836c2.736 0 4.276 1.856 4.276 4.222 0 2.384-1.558 4.193-4.295 4.193h-2.542V35.5h-2.505V22.836h5.066Zm1.725 4.222c0-1.42-.826-2.227-2.208-2.227h-2.087v4.453h2.087c1.382 0 2.208-.816 2.208-2.226Z"/><path fill="#BF3E3E" d="M28.55 0a3.5 3.5 0 0 1 2.475 1.025l10.95 10.95A3.496 3.496 0 0 1 43 14.45v.05a1.5 1.5 0 0 0-1.492-1.5h-9.775A1.733 1.733 0 0 1 30 11.267V1.5A1.5 1.5 0 0 0 28.5 0h.05Z"/></svg>