<svg xmlns="http://www.w3.org/2000/svg" width="48" height="48" fill="none"><path fill="#353B4B" d="M10.6 48h26.8c1.96 0 2.94 0 3.689-.382a3.5 3.5 0 0 0 1.53-1.529C43 45.34 43 44.36 43 42.4V15.32c0-.857 0-1.284-.097-1.687a3.5 3.5 0 0 0-.419-1.012c-.216-.353-.519-.656-1.124-1.261l-9.72-9.72c-.605-.605-.908-.908-1.261-1.124a3.5 3.5 0 0 0-1.012-.42C28.965 0 28.537 0 27.68 0H10.6C8.64 0 7.66 0 6.911.381a3.5 3.5 0 0 0-1.53 1.53C5 2.66 5 3.64 5 5.6v36.8c0 1.96 0 2.94.381 3.689a3.5 3.5 0 0 0 1.53 1.53C7.66 48 8.64 48 10.6 48Z"/><path fill="#2D3240" d="M28.55 0a3.5 3.5 0 0 1 2.475 1.025l10.95 10.95A3.496 3.496 0 0 1 43 14.45v.05a1.5 1.5 0 0 0-1.492-1.5h-9.775A1.733 1.733 0 0 1 30 11.267V1.5A1.5 1.5 0 0 0 28.5 0h.05Z"/><path fill="#5F6881" d="M19.881 26.343c-.083-2.755 2.088-3.766 4.175-3.766 2.162 0 4.073 1.104 4.073 3.367 0 1.605-.947 2.348-1.837 2.988-1.086.788-1.494 1.085-1.494 2.106v.491h-2.217l-.01-.566c-.092-1.391.613-2.273 1.652-2.987.872-.612 1.429-1.02 1.429-1.902 0-1.095-.835-1.558-1.735-1.558-1.17 0-1.781.798-1.781 1.827H19.88Zm2.264 7.914c0-.863.65-1.447 1.614-1.447 1.002 0 1.651.584 1.651 1.447 0 .835-.649 1.428-1.65 1.428-.956 0-1.615-.593-1.615-1.428Z"/></svg>