<svg width="24" height="24" viewBox="0 0 24 24" fill="none" xmlns="http://www.w3.org/2000/svg">
<path d="M11.1398 18.6398C12.7594 16.8991 13.75 14.5652 13.75 12C13.75 9.43482 12.7594 7.10099 11.1398 5.36023L9.72441 6.77561C10.9826 8.15344 11.75 9.98711 11.75 12C11.75 14.0129 10.9826 15.8466 9.72441 17.2244L11.1398 18.6398Z" fill="black"/>
<path d="M13.0853 20.5853C15.2021 18.3461 16.5 15.3246 16.5 12C16.5 8.67542 15.2021 5.65396 13.0853 3.4147L14.5 2C16.9785 4.6016 18.5 8.12313 18.5 12C18.5 15.8769 16.9785 19.3984 14.5 22L13.0853 20.5853Z" fill="black"/>
<path d="M7.77674 15.2768C8.53876 14.3992 9 13.2535 9 12C9 10.7466 8.53876 9.60082 7.77674 8.72328L4.5 12L7.77674 15.2768Z" fill="black"/>
</svg>
