<svg xmlns="http://www.w3.org/2000/svg" width="48" height="48" fill="none"><path fill="#c0c7d8" d="M10.6 48h26.8c1.96 0 2.94 0 3.689-.382a3.5 3.5 0 0 0 1.53-1.529C43 45.34 43 44.36 43 42.4V15.32c0-.857 0-1.284-.097-1.687a3.5 3.5 0 0 0-.419-1.012c-.216-.353-.519-.656-1.124-1.261l-9.72-9.72c-.605-.605-.908-.908-1.261-1.124a3.5 3.5 0 0 0-1.012-.42C28.965 0 28.537 0 27.68 0H10.6C8.64 0 7.66 0 6.911.381a3.5 3.5 0 0 0-1.53 1.53C5 2.66 5 3.64 5 5.6v36.8c0 1.96 0 2.94.381 3.689a3.5 3.5 0 0 0 1.53 1.53C7.66 48 8.64 48 10.6 48"/><path fill="#aab4ca" d="M21.969 26.77L22.164 26.789L22.352 26.846L22.525 26.939L22.676 27.063L22.8 27.214L22.893 27.387L22.95 27.575L22.969 27.77L22.969 35.166L22.893 35.549L22.676 35.873L22.352 36.09L21.969 36.166L21.586 36.09L21.262 35.873L21.045 35.549L20.969 35.166L20.969 27.77L20.988 27.575L21.045 27.387L21.138 27.214L21.262 27.063L21.413 26.939L21.586 26.846L21.774 26.789L21.969 26.77"/><path fill="#aab4ca" d="M26.005 25.914L26.2 25.933L26.388 25.99L26.561 26.083L26.712 26.207L26.836 26.358L26.929 26.531L26.986 26.719L27.005 26.914L27.005 32.013L26.929 32.396L26.712 32.72L26.388 32.937L26.005 33.013L25.622 32.937L25.298 32.72L25.081 32.396L25.005 32.013L25.005 26.914L25.024 26.719L25.081 26.531L25.174 26.358L25.298 26.207L25.449 26.083L25.622 25.99L25.81 25.933L26.005 25.914"/><path fill="#aab4ca" d="M17.717 25.914L17.912 25.933L18.1 25.99L18.273 26.083L18.424 26.207L18.548 26.358L18.641 26.531L18.698 26.719L18.717 26.914L18.717 30.067L18.641 30.45L18.424 30.774L18.1 30.991L17.717 31.067L17.334 30.991L17.01 30.774L16.793 30.45L16.717 30.067L16.717 26.914L16.736 26.719L16.793 26.531L16.886 26.358L17.01 26.207L17.161 26.083L17.334 25.99L17.522 25.933L17.717 25.914"/><path fill="#aab4ca" d="M30.153 26.923L30.348 26.942L30.536 26.999L30.709 27.092L30.86 27.216L30.984 27.367L31.077 27.54L31.134 27.728L31.153 27.923L31.153 30.067L31.077 30.45L30.86 30.774L30.536 30.991L30.153 31.067L29.77 30.991L29.446 30.774L29.229 30.45L29.153 30.067L29.153 27.923L29.172 27.728L29.229 27.54L29.322 27.367L29.446 27.216L29.597 27.092L29.77 26.999L29.958 26.942L30.153 26.923"/><path fill="#aab4ca" d="M26.005 22.525L26.329 22.568L26.63 22.693L26.889 22.891L27.088 23.15L27.213 23.452L27.255 23.776L27.213 24.099L27.088 24.401L26.889 24.66L26.63 24.858L26.329 24.983L26.005 25.026L25.681 24.983L25.38 24.859L25.121 24.66L24.922 24.401L24.798 24.1L24.755 23.776L24.798 23.452L24.922 23.151L25.121 22.892L25.38 22.693L25.681 22.569L26.005 22.526"/><path fill="#b1b7c7" d="M28.55 0a3.5 3.5 0 0 1 2.475 1.025l10.95 10.95A3.5 3.5 0 0 1 43 14.45v.05a1.5 1.5 0 0 0-1.492-1.5h-9.775A1.733 1.733 0 0 1 30 11.267V1.5A1.5 1.5 0 0 0 28.5 0z"/></svg>