<svg xmlns="http://www.w3.org/2000/svg" width="48" height="48" fill="none"><path fill="#e8e1d9" d="M10.6 48h26.8c1.96 0 2.94 0 3.689-.382a3.5 3.5 0 0 0 1.53-1.529C43 45.34 43 44.36 43 42.4V15.32c0-.857 0-1.284-.097-1.687a3.5 3.5 0 0 0-.419-1.012c-.216-.353-.519-.656-1.124-1.261l-9.72-9.72c-.605-.605-.908-.908-1.261-1.124a3.5 3.5 0 0 0-1.012-.42C28.965 0 28.537 0 27.68 0H10.6C8.64 0 7.66 0 6.911.381a3.5 3.5 0 0 0-1.53 1.53C5 2.66 5 3.64 5 5.6v36.8c0 1.96 0 2.94.381 3.689a3.5 3.5 0 0 0 1.53 1.53C7.66 48 8.64 48 10.6 48"/><path fill="#f8f6f4" fill-rule="evenodd" d="M18.8 26c1.12 0 1.68 0 2.108.218a2 2 0 0 1 .874.874C22 27.52 22 28.08 22 29.2v4.6c0 1.12 0 1.68-.218 2.108a2 2 0 0 1-.874.874C20.48 37 19.92 37 18.8 37h-1.6c-1.12 0-1.68 0-2.108-.218a2 2 0 0 1-.874-.874C14 35.48 14 34.92 14 33.8v-4.6c0-1.12 0-1.68.218-2.108a2 2 0 0 1 .874-.874C15.52 26 16.08 26 17.2 26zM16 35h4v-4h-4z" clip-rule="evenodd"/><path fill="#f8f6f4" d="M22 24h-4v-4h4zm-4-4h-4v-4h4zm4-4h-4v-4h4zm-4-4h-4V8h4zm4-4h-4V4h4zm-4-4h-4V0h4z"/><path fill="#e0dad3" d="M28.55 0a3.5 3.5 0 0 1 2.475 1.025l10.95 10.95A3.5 3.5 0 0 1 43 14.45v.05a1.5 1.5 0 0 0-1.492-1.5h-9.775A1.733 1.733 0 0 1 30 11.267V1.5A1.5 1.5 0 0 0 28.5 0z"/></svg>