<svg width="24" height="24" viewBox="0 0 24 24" fill="none" xmlns="http://www.w3.org/2000/svg">
<path fill-rule="evenodd" clip-rule="evenodd" d="M18.4118 6.5L17.6107 20.1174C17.5486 21.1746 16.6731 22 15.6142 22H8.38581C7.32686 22 6.45145 21.1746 6.38926 20.1174L5.58824 6.5H3.5V5.5C3.5 5.22385 3.72386 5 4 5H20C20.2761 5 20.5 5.22385 20.5 5.5V6.5H18.4118ZM10 2.50003H14C14.2761 2.50003 14.5 2.72389 14.5 3.00003V4H9.5V3.00003C9.5 2.72389 9.72386 2.50003 10 2.50003ZM9 8.99998L9.5 18H11L10.6 8.99998H9ZM13.5 8.99998L13 18H14.5L15 8.99998H13.5Z" fill="black"/>
</svg>
