<svg width="222" height="175" viewBox="0 0 222 175" fill="none" xmlns="http://www.w3.org/2000/svg">
<rect x="27" width="168" height="175" rx="11.3717" fill="url(#paint0_linear_3294_10602)"/>
<rect x="46.5" y="12" width="129" height="7" fill="black" fill-opacity="0.02"/>
<rect x="46.5" y="26" width="68" height="7" fill="black" fill-opacity="0.02"/>
<rect x="88" y="44" width="46" height="46" rx="9.7868" fill="black" fill-opacity="0.02"/>
<path fill-rule="evenodd" clip-rule="evenodd" d="M100.602 78.4182C99.9264 78.4182 99.3787 77.8705 99.3787 77.1949V76.3575C99.3787 75.5194 99.9881 74.5426 100.742 74.1748L107.666 70.7957C108.67 70.3056 108.904 69.2202 108.179 68.3606L107.736 67.8364C106.837 66.7699 106.107 64.7773 106.107 63.3824V61.2908C106.107 58.5886 108.303 56.3979 111 56.3979C113.703 56.3979 115.894 58.5914 115.894 61.2916V63.3835C115.894 64.777 115.161 66.7755 114.264 67.8382L113.822 68.3625C113.101 69.2174 113.326 70.3055 114.335 70.7974L121.259 74.1751C122.012 74.5423 122.622 75.513 122.622 76.3575V77.1949C122.622 77.8705 122.075 78.4182 121.399 78.4182H100.602Z" fill="black" fill-opacity="0.04"/>
<rect x="70.5" y="101.077" width="81" height="24" rx="4.64516" fill="url(#paint1_linear_3294_10602)"/>
<g opacity="0.9">
<path d="M89.8794 108.586C90.3235 108.551 90.5706 108.741 90.7251 108.946C90.8072 109.054 90.863 109.169 90.8979 109.257C90.9151 109.301 90.9263 109.337 90.9331 109.36L90.9399 109.383V109.385L90.9409 109.386L90.9458 109.41L90.9546 109.435C91.0767 109.775 91.0998 110.147 91.0991 110.462C91.0989 110.54 91.0967 110.613 91.0952 110.681C91.0938 110.747 91.0928 110.814 91.0933 110.872C91.0937 110.923 91.0952 110.998 91.1089 111.068C91.1154 111.101 91.1307 111.167 91.1714 111.235C91.2165 111.31 91.3172 111.425 91.4907 111.45L91.4976 111.451L91.5054 111.452L92.0952 111.515V111.516C92.6555 111.595 93.0267 112.092 93.0698 112.495C93.2196 113.895 93.2563 114.864 92.5854 115.8C91.94 116.701 91.0383 116.705 90.729 116.705H85.9536C85.8469 116.705 85.7411 116.664 85.6704 116.597C85.6094 116.539 85.5543 116.445 85.5669 116.277L85.5679 116.263V116.25L85.6157 112.742V112.736C85.6157 112.743 85.6164 112.714 85.647 112.65C85.6751 112.591 85.7181 112.524 85.771 112.461C85.8244 112.399 85.8788 112.351 85.9233 112.323C85.9453 112.309 85.9592 112.303 85.9653 112.3C85.9663 112.3 85.9673 112.3 85.9683 112.3C85.9828 112.3 86.0041 112.301 86.0308 112.301C86.0844 112.302 86.1612 112.302 86.2544 112.3C86.4404 112.298 86.6953 112.29 86.9683 112.27C87.2395 112.25 87.538 112.217 87.8081 112.162C88.0624 112.109 88.3529 112.025 88.561 111.87C88.9548 111.576 89.1083 111.087 89.1782 110.689C89.2511 110.275 89.2526 109.84 89.2544 109.555C89.2559 109.319 89.2967 109.069 89.3979 108.885C89.4861 108.725 89.62 108.607 89.8794 108.586Z" stroke="white" stroke-width="0.844251"/>
<path fill-rule="evenodd" clip-rule="evenodd" d="M89.5378 114.996C89.5115 115.009 89.482 115.017 89.4506 115.017C89.378 115.017 89.3148 114.977 89.2816 114.919L89.2689 114.891L88.3219 113.816C88.3162 113.804 88.3435 113.891 88.3126 113.776C88.2816 113.661 88.4174 113.513 88.5326 113.551C88.6478 113.589 88.5744 113.558 88.5906 113.57L89.3009 114.042C89.3466 114.072 89.4011 114.089 89.4597 114.089C89.4946 114.089 89.528 114.082 89.559 114.071L91.7436 112.405C92.0015 112.335 92.0574 112.406 91.946 112.655L89.559 114.984L89.5378 114.996Z" fill="white"/>
</g>
<path opacity="0.89" d="M100.217 110.838H103.203V110.417H99.9566V109.726H103.203V109.215H104.028V109.726H107.283V110.417H104.028V110.838H107.014V111.511H100.217V110.838ZM101.589 113.6H100.746V111.878H106.485V113.6H105.758L105.471 114.111H107.641V114.81H99.589V114.111H101.813L101.589 113.6ZM104.853 113.6H102.485L102.71 114.111H104.566L104.853 113.6ZM105.669 112.981V112.488H101.553V112.981H105.669ZM106.619 115.214V117.509H105.803V117.178H101.436V117.509H100.611V115.214H106.619ZM101.436 116.487H105.803V115.904H101.436V116.487ZM113.522 109.116L114.365 109.251C114.302 109.717 114.231 110.148 114.141 110.542H116.983V111.098C116.84 111.869 116.661 112.631 116.445 113.385L115.611 113.151C115.809 112.631 115.97 112.04 116.096 111.358H113.917C113.693 112.04 113.415 112.587 113.092 112.999L112.41 112.506C112.984 111.699 113.361 110.569 113.522 109.116ZM112.052 116.093C111.774 115.662 111.487 115.241 111.2 114.828C110.698 115.824 110.088 116.613 109.37 117.187L108.949 116.424C109.666 115.886 110.249 115.124 110.698 114.138C110.186 113.465 109.657 112.82 109.101 112.201L109.666 111.654C110.088 112.075 110.545 112.605 111.047 113.232C111.262 112.569 111.433 111.824 111.558 111.008H109.101V110.183H112.392V110.973C112.195 112.084 111.926 113.08 111.594 113.95C111.935 114.407 112.294 114.909 112.67 115.465L112.052 116.093ZM114.347 111.896H115.181C115.181 112.506 115.145 113.062 115.073 113.582C115.504 114.936 116.248 116.021 117.288 116.837L116.714 117.509C115.889 116.783 115.253 115.904 114.804 114.873C114.795 114.873 114.795 114.882 114.795 114.891C114.482 115.949 113.737 116.819 112.563 117.509L112.025 116.846C113.011 116.254 113.666 115.537 113.971 114.685C114.213 113.967 114.338 113.035 114.347 111.896ZM122.55 111.25C122.138 112.111 121.672 112.856 121.16 113.483L120.551 112.748C121.295 111.878 121.932 110.677 122.452 109.152L123.313 109.341C123.187 109.717 123.053 110.076 122.918 110.417H126.612V111.25H123.734V112.533H126.254V113.358H123.734V114.676H126.272V115.492H123.734V117.518H122.873V111.25H122.55ZM119.493 112.73C119.242 113.035 118.964 113.34 118.677 113.636L118.39 112.721C119.313 111.708 119.995 110.524 120.434 109.179L121.241 109.556C121.008 110.237 120.712 110.883 120.353 111.493V117.518H119.493V112.73ZM128.844 110.085H131.283V109.206H132.144V110.085H134.134V110.883H132.144V111.753H133.202C134.045 111.161 134.762 110.497 135.354 109.78L135.99 110.255C135.533 110.811 135.049 111.304 134.529 111.753H136.143V112.56H133.462C133.354 112.631 133.246 112.694 133.139 112.766C132.807 112.963 132.43 113.169 132 113.376H135.04V117.518H134.188V117.178H130.574V117.518H129.713V114.344C129.265 114.506 128.799 114.676 128.315 114.846L127.965 114.057C129.364 113.734 130.682 113.241 131.901 112.56H128.099V111.753H131.283V110.883H128.844V110.085ZM130.574 115.617V116.424H134.188V115.617H130.574ZM134.188 114.882V114.111H130.574V114.882H134.188Z" fill="white"/>
<defs>
<linearGradient id="paint0_linear_3294_10602" x1="111" y1="87.931" x2="111" y2="195.69" gradientUnits="userSpaceOnUse">
<stop stop-color="#F7F7F7"/>
<stop offset="1" stop-color="#F7F7F7" stop-opacity="0"/>
</linearGradient>
<linearGradient id="paint1_linear_3294_10602" x1="70.5" y1="113.077" x2="151.5" y2="113.077" gradientUnits="userSpaceOnUse">
<stop stop-color="#FA5151"/>
<stop offset="1" stop-color="#FA5151"/>
</linearGradient>
</defs>
</svg>
