<svg xmlns="http://www.w3.org/2000/svg" width="24" height="24" viewBox="0 0 24 24" fill="none">
    <path d="M21.0557 10.9106C21.1354 10.8086 21.2941 10.7988 21.4102 10.8892L22.5664 11.7925C22.6823 11.8832 22.7116 12.04 22.6318 12.1421L15.707 21.0044L14.0469 21.9536C13.9435 22.0127 13.7734 21.9611 13.667 21.8384C13.5995 21.7605 13.5714 21.6685 13.5928 21.5962L14.1309 19.7729L21.0557 10.9106Z" fill="black" fill-opacity="0.9" style="fill:black;fill-opacity:0.9;"/>
    <path d="M17 2.02197C18.6569 2.02197 20 3.36512 20 5.02197V9.84033C19.9564 9.88567 19.9138 9.93465 19.873 9.98682L18.7998 11.3608V5.02197C18.7998 4.02786 17.9941 3.22217 17 3.22217H5C4.00589 3.22217 3.2002 4.02786 3.2002 5.02197V17.022C3.2002 18.0161 4.00589 18.8218 5 18.8218H12.9707L12.7734 19.0747L12.4932 20.022H5C3.34315 20.022 2 18.6788 2 17.022V5.02197C2 3.36512 3.34315 2.02197 5 2.02197H17Z" fill="black" fill-opacity="0.9" style="fill:black;fill-opacity:0.9;"/>
    <path d="M8.65332 12.3687C8.10706 13.9205 7.48653 15.3858 6.80371 16.7515L5.5 16.1802C6.25729 14.7897 6.91525 13.3492 7.48633 11.8843L8.65332 12.3687Z" fill="black" fill-opacity="0.9" style="fill:black;fill-opacity:0.9;"/>
    <path d="M12.5898 5.2915C12.9375 6.03645 13.2102 6.70755 13.3965 7.31592H16.4131V8.58252H13.3838V11.103H16.0781V12.3442H13.3838V15.1753H15.7168L14.6982 16.4409H8.69043V15.1753H12.0801V12.3442H9.33691V11.103H12.0801V8.58252H8.98926V7.31592H12.1172C11.9061 6.73238 11.6579 6.17304 11.3848 5.63916L12.5898 5.2915Z" fill="black" fill-opacity="0.9" style="fill:black;fill-opacity:0.9;"/>
    <path d="M6.24512 8.37061C7.05214 8.99139 7.73524 9.6131 8.29395 10.2339L7.375 11.1519C6.8908 10.5808 6.20761 9.94795 5.32617 9.26514L6.24512 8.37061Z" fill="black" fill-opacity="0.9" style="fill:black;fill-opacity:0.9;"/>
    <path d="M6.54297 5.46533C7.38718 6.08608 8.10719 6.69489 8.70312 7.30322L7.78418 8.23486C7.27513 7.65132 6.55492 7.03031 5.61133 6.35986L6.54297 5.46533Z" fill="black" fill-opacity="0.9" style="fill:black;fill-opacity:0.9;"/>
</svg>