<svg width="16" height="16" viewBox="0 0 16 16" fill="none" xmlns="http://www.w3.org/2000/svg">
<path d="M7.99999 13.3333C10.9455 13.3333 13.3333 10.9455 13.3333 8.00001C13.3333 5.05449 10.9455 2.66667 7.99999 2.66667C5.05447 2.66667 2.66666 5.05449 2.66666 8.00001C2.66666 10.9455 5.05447 13.3333 7.99999 13.3333Z" fill="white"/>
<path fill-rule="evenodd" clip-rule="evenodd" d="M8.00003 14.8C11.7556 14.8 14.8 11.7556 14.8 8.00002C14.8 4.24448 11.7556 1.20003 8.00003 1.20003C4.2445 1.20003 1.20004 4.24448 1.20004 8.00002C1.20004 11.7556 4.2445 14.8 8.00003 14.8ZM7.96319 10.3807L6.09399 5.13331H4.66668L7.19517 11.8H8.80134L11.3333 5.13331H9.90252L8.03683 10.3807H7.96319Z" fill="#FF0000"/>
</svg>
