<svg width="17" height="20" viewBox="0 0 17 20" fill="none" xmlns="http://www.w3.org/2000/svg">
<path fill-rule="evenodd" clip-rule="evenodd" d="M6.38493 18.4457C6.38493 18.4457 0.333496 13.3489 0.333496 8.33366C0.333496 4.65176 3.31826 1.66699 7.00016 1.66699C10.6821 1.66699 13.6668 4.65176 13.6668 8.33366C13.6668 13.3489 7.6154 18.4457 7.6154 18.4457C7.27813 18.7553 6.72471 18.752 6.38493 18.4457ZM7.00016 11.2503C8.61099 11.2503 9.91683 9.94449 9.91683 8.33366C9.91683 6.72283 8.61099 5.41699 7.00016 5.41699C5.38933 5.41699 4.0835 6.72283 4.0835 8.33366C4.0835 9.94449 5.38933 11.2503 7.00016 11.2503Z" fill="#07C160"/>
</svg>
