<svg width="16" height="16" viewBox="0 0 16 16" xmlns="http://www.w3.org/2000/svg" xmlns:xlink="http://www.w3.org/1999/xlink"><title>企业认证-lightmode</title><g id="企业认证-lightmode" stroke="none" stroke-width="1" fill="none" fill-rule="evenodd"><g id="icon_filled_proof"><path id="矩形" d="M0 0h16v16H0z"/><path id="矩形" fill="#fff" d="M4.2 4h7.6v8H4.2z"/><path d="M10.9299148 1.82990883 11.8788314 4.12082217 14.1700912 5.0700852C14.4195441 5.17341197 14.5380027 5.45939641 14.4346759 5.70884931L13.4854622 7.99957207 14.4346759 10.2911507C14.5380027 10.5406036 14.4195441 10.826588 14.1700912 10.9299148L11.8789571 11.8780184 10.9299148 14.1700912C10.826588 14.4195441 10.5406036 14.5380027 10.2911507 14.4346759L7.9993362 13.48501 5.70884931 14.4346759C5.45939641 14.5380027 5.17341197 14.4195441 5.0700852 14.1700912L4.12088991 11.8785049 1.82990883 10.9299148C1.58045593 10.826588 1.46199729 10.5406036 1.56532407 10.2911507L2.51425909 7.999755 1.56532407 5.70884931C1.46199729 5.45939641 1.58045593 5.17341197 1.82990883 5.0700852L4.12127438 4.12007691 5.0700852 1.82990883C5.17341197 1.58045593 5.45939641 1.46199729 5.70884931 1.56532407L7.99915327 2.51380688 10.2911507 1.56532407C10.5406036 1.46199729 10.826588 1.58045593 10.9299148 1.82990883zM10.9485027 5.69333331 7.21562487 9.42621107 5.37169173 7.58227793 4.66666667 8.287303 6.90295073 10.5252046v0L6.9580304 10.5721755C7.1316838 10.6971789 7.37524307 10.6816042 7.5314418 10.5253835v0L11.6568543 6.40168501 10.9485027 5.69333331z" id="形状结合" fill="#1485ee"/></g></g></svg>