<svg width="14" height="14" viewBox="0 0 14 14" fill="none" xmlns="http://www.w3.org/2000/svg">
<path fill-rule="evenodd" clip-rule="evenodd" d="M6.65029 1.46875C7.68207 1.46875 8.49449 2.33642 8.76793 3.20301C8.88703 3.58047 8.85789 3.97509 8.80739 4.34003L8.73853 4.80492C8.68916 5.17082 8.68304 5.47438 8.89418 5.65135C9.26775 5.96444 9.71922 5.61101 10.0505 5.18444L10.1461 5.05487L10.2332 4.92447C10.2608 4.88126 10.2867 4.8385 10.3108 4.7968C10.8502 5.76826 11.1708 6.89958 11.1708 8.07964C11.1708 9.92767 9.96884 11.495 8.30403 12.0424C8.06484 12.1211 7.73297 11.9826 7.75693 11.7128L7.76423 11.5921C7.76586 11.5478 7.76668 11.4991 7.76668 11.4454C7.76668 10.9402 7.51179 10.4307 7.00201 9.91697C6.48301 10.4307 6.2235 10.9402 6.2235 11.4454C6.2235 11.5366 6.23113 11.6266 6.2459 11.7134C6.27783 11.9012 5.97205 12.1301 5.7507 12.0606C4.05806 11.5295 2.82947 9.94804 2.82947 8.07964C2.82947 6.56115 3.60225 5.42801 4.18209 4.80632L4.32248 4.66162L4.45147 4.53868L4.51064 4.48549C4.39666 5.01286 4.39526 6.07637 4.60521 6.22876C4.60783 6.23066 4.61482 6.22285 4.61566 6.21727C4.75395 5.29558 5.13735 4.62283 5.54341 4.06961L5.69631 3.8675L5.84873 3.67508L6.1417 3.31323L6.27703 3.14078C6.6897 2.6012 6.93828 2.1161 6.65029 1.46875ZM7.51113 2.76006L7.50012 2.78971C7.40223 3.03065 7.26053 3.27403 7.07903 3.52756L6.96539 3.68096L6.82175 3.86383L6.53462 4.21838L6.39412 4.39541L6.24879 4.58735C5.86283 5.1132 5.62516 5.59678 5.51141 6.17174L5.48098 6.3471C5.39949 6.89019 4.85573 7.49177 4.09124 6.93689C4.04126 6.90062 3.99516 6.85868 3.95275 6.81173L3.94055 6.79731L3.91484 6.86591C3.79881 7.1925 3.72713 7.53767 3.70902 7.89815L3.70447 8.07964C3.70447 9.24766 4.31773 10.2973 5.26776 10.885L5.39888 10.9617L5.41621 10.8796C5.53947 10.3693 5.82864 9.88225 6.26407 9.42044L6.38644 9.29512L7.00756 8.68028L7.62313 9.30067C8.11791 9.79931 8.44345 10.3274 8.5753 10.8821L8.59205 10.9652L8.66395 10.9258C9.61416 10.3698 10.2439 9.35972 10.2927 8.22244L10.2958 8.07964C10.2958 7.59215 10.2324 7.10641 10.1106 6.63487L10.044 6.39831L10.0059 6.42476C9.50869 6.74557 8.96139 6.79635 8.4179 6.38995L8.33213 6.32196C7.86485 5.93032 7.78147 5.47739 7.85701 4.80534L7.87298 4.67672L7.94065 4.22009C7.99004 3.86321 7.98854 3.64079 7.93348 3.46631C7.85607 3.22095 7.72503 2.99666 7.56258 2.81415L7.51113 2.76006Z" fill="black" fill-opacity="0.55"/>
</svg>
