<svg width="24" height="24" viewBox="0 0 24 24" fill="none" xmlns="http://www.w3.org/2000/svg">
<path fill-rule="evenodd" clip-rule="evenodd" d="M2.75 4.35129C2.75026 3.76939 3.31589 3.37119 3.85059 3.53844L3.95703 3.57948L8.83496 5.83827C10.2263 6.48248 11.3248 7.56456 12 8.87571C12.6752 7.56456 13.7737 6.48248 15.165 5.83827L20.043 3.57948L20.1494 3.53844C20.6841 3.37119 21.2497 3.76939 21.25 4.35129V12.2297C21.25 14.8611 19.7219 17.2531 17.335 18.3583L12.3154 20.6826C12.3031 20.6883 12.2899 20.6922 12.2773 20.6972C12.2608 20.7038 12.2444 20.7104 12.2275 20.7158C12.1533 20.7394 12.0767 20.75 12 20.75C11.923 20.75 11.846 20.7396 11.7715 20.7158C11.7549 20.7105 11.7389 20.7037 11.7227 20.6972C11.7101 20.6922 11.6969 20.6883 11.6846 20.6826L6.66504 18.3583C4.27806 17.2531 2.75 14.8611 2.75 12.2297V4.35129ZM4.25 12.2297C4.25 14.2763 5.43841 16.1368 7.29492 16.9964L11.25 18.8273V11.9669C11.2499 9.92032 10.0616 8.05978 8.20508 7.20018L4.25 5.36834V12.2297ZM15.7949 7.20018C13.9384 8.05978 12.7501 9.92032 12.75 11.9669V18.8273L16.7051 16.9964C18.5616 16.1368 19.75 14.2763 19.75 12.2297V5.36834L15.7949 7.20018Z" fill="black"/>
</svg>
