<svg width="24" height="24" viewBox="0 0 24 24" fill="none" xmlns="http://www.w3.org/2000/svg">
<path fill-rule="evenodd" clip-rule="evenodd" d="M15.8528 4.00797C16.4435 2.99729 17.8973 2.9974 18.4881 4.00797L22.399 10.7019C22.867 11.503 22.867 12.497 22.399 13.2982L18.4881 19.9921L18.3671 20.1694C17.7617 20.9436 16.5792 20.9435 15.9739 20.1694L15.8528 19.9921L12 13.3966L8.14728 19.9921L8.02622 20.1694C7.4209 20.9436 6.23835 20.9435 5.63302 20.1694L5.51195 19.9921L1.60109 13.2982C1.16239 12.547 1.13468 11.6261 1.51876 10.8538L1.60109 10.7019L5.51195 4.00797C6.10266 2.99729 7.55648 2.9974 8.14728 4.00797L12 10.6025L15.8528 4.00797ZM3.05483 11.5611C2.89668 11.8318 2.89684 12.1682 3.05483 12.4389L6.82913 18.899L10.8165 12.0755C10.8435 12.0291 10.8436 11.9709 10.8165 11.9245L6.82913 5.10007L3.05483 11.5611ZM13.1836 11.9245C13.1565 11.9708 13.1567 12.0291 13.1836 12.0755L17.17 18.899L20.9452 12.4389C21.1033 12.1681 21.1034 11.8319 20.9452 11.5611L17.17 5.10007L13.1836 11.9245Z" fill="black"/>
</svg>
