<svg width="48" height="48" viewBox="0 0 48 48" fill="none" xmlns="http://www.w3.org/2000/svg">
<circle cx="24" cy="24" r="24" fill="#23C891"/>
<path fill-rule="evenodd" clip-rule="evenodd" d="M30.4188 14.5488C29.6169 14.5488 28.9131 15.0824 28.6965 15.8545L28.2889 17.3078C28.1737 17.7188 28.4826 18.1262 28.9094 18.1262C31.6195 18.1262 32.9428 18.9942 32.2542 21.4497C32.25 21.4649 32.2457 21.4797 32.2415 21.4944C31.7265 23.2803 29.7162 24.6785 27.8475 24.6785H23.8598L24.9883 20.6529L25.6971 18.1262L26.3442 15.8189C26.523 15.1811 26.0437 14.5488 25.3813 14.5488H23.4239C22.5631 14.5488 21.8076 15.1217 21.5752 15.9504L19.1276 24.6785H12.8908C12.4425 24.6785 12.049 24.9768 11.928 25.4084L11.368 27.405C11.1891 28.0428 11.6684 28.6751 12.3308 28.6751H18.0072L16.2669 34.8787C16.088 35.5165 16.5673 36.1488 17.2297 36.1488H19.8846C20.3329 36.1488 20.7264 35.8505 20.8474 35.4189L22.7388 28.6751H26.9693H27.0934C31.899 28.4594 35.9215 25.4166 36.5758 21.4736C37.2025 17.697 35.7408 14.761 31.1657 14.5488H30.4188Z" fill="white"/>
</svg>
