<svg width="24" height="24" viewBox="0 0 24 24" fill="none" xmlns="http://www.w3.org/2000/svg">
<path fill-rule="evenodd" clip-rule="evenodd" d="M2.73202 21.0543C2.17973 21.0543 1.73198 20.6066 1.73193 20.0543C1.73192 19.8788 1.77811 19.7064 1.86585 19.5544L11.1323 3.50017C11.4084 3.02185 12.0199 2.85791 12.4983 3.13399C12.6503 3.22175 12.7766 3.34799 12.8644 3.50001L22.1339 19.5526C22.4101 20.0309 22.2463 20.6425 21.768 20.9187C21.616 21.0065 21.4435 21.0527 21.268 21.0527L2.73202 21.0543ZM11.9985 4.40012L3.07837 19.8543L20.9215 19.8528L11.9985 4.40012ZM11.3726 9.95413H12.6274L12.5298 14.6758H11.4702L11.3726 9.95413ZM11.9976 17.0977C11.6021 17.0977 11.2896 16.7901 11.2896 16.4043C11.2896 16.0186 11.6021 15.7159 11.9976 15.7159C12.3979 15.7159 12.7104 16.0186 12.7104 16.4043C12.7104 16.7901 12.3979 17.0977 11.9976 17.0977Z" fill="black"/>
</svg>
