<svg width="24" height="24" viewBox="0 0 24 24" fill="none" xmlns="http://www.w3.org/2000/svg">
<path d="M4 17.8V11.4H5.2V17.8C5.2 18.0899 5.20046 18.2713 5.21162 18.4079C5.22222 18.5376 5.23934 18.5734 5.24356 18.5816C5.2819 18.6569 5.34311 18.7181 5.41836 18.7564C5.42664 18.7607 5.46244 18.7778 5.59209 18.7884C5.72874 18.7995 5.9101 18.8 6.2 18.8H12.6V20H6.2C5.92988 20 5.69119 20.0005 5.49434 19.9844C5.29048 19.9677 5.07927 19.9304 4.87363 19.8256C4.57257 19.6722 4.32781 19.4274 4.17442 19.1264C4.06964 18.9207 4.03228 18.7095 4.01563 18.5057C3.99954 18.3088 4 18.0701 4 17.8Z" fill="black"/>
<path d="M20 6.2V12.6H18.8V6.2C18.8 5.9101 18.7995 5.72874 18.7884 5.59209C18.7778 5.46244 18.7607 5.42664 18.7564 5.41836C18.7181 5.34311 18.6569 5.2819 18.5816 5.24356C18.5734 5.23934 18.5376 5.22222 18.4079 5.21162C18.2713 5.20046 18.0899 5.2 17.8 5.2L11.4 5.2V4L17.8 4C18.0701 4 18.3088 3.99954 18.5057 4.01563C18.7095 4.03228 18.9207 4.06964 19.1264 4.17442C19.4274 4.32781 19.6722 4.57258 19.8256 4.87363C19.9304 5.07927 19.9677 5.29048 19.9844 5.49434C20.0005 5.69119 20 5.92988 20 6.2Z" fill="black"/>
</svg>
