<svg width="24" height="24" viewBox="0 0 24 24" fill="none" xmlns="http://www.w3.org/2000/svg"><path fill-rule="evenodd" clip-rule="evenodd" d="M4.25911 13.9146C3.91363 13.5691 3.91363 13.009 4.25911 12.6635L12.6635 4.25911C12.8294 4.09321 13.0544 4 13.2891 4H19.1153C19.6039 4 20 4.39608 20 4.88467V10.7109C20 10.9456 19.9068 11.1706 19.7409 11.3365l-8.4044 8.4044C10.991 20.0864 10.4309 20.0864 10.0854 19.7409L4.25911 13.9146zM18.8002 10.6938V5.2H13.3064L5.2002 13.3062 10.694 18.8 18.8002 10.6938zM15.75 9.5C16.4404 9.5 17 8.94036 17 8.25 17 7.55964 16.4404 7 15.75 7 15.0596 7 14.5 7.55964 14.5 8.25 14.5 8.94036 15.0596 9.5 15.75 9.5z" fill="#000"/></svg>