<svg width="56" height="56" viewBox="0 0 56 56" xmlns="http://www.w3.org/2000/svg" xmlns:xlink="http://www.w3.org/1999/xlink"><title>画板</title><defs><linearGradient x1="94.0869141%" y1="0" x2="94.0869141%" y2="90.559082%" id="linearGradient-1"><stop stop-color="#ededed" stop-opacity="0" offset="0"/><stop stop-color="#ededed" stop-opacity=".3" offset="100%"/></linearGradient><linearGradient x1="100%" y1="8.67370605%" x2="100%" y2="90.6286621%" id="linearGradient-2"><stop stop-color="#ededed" offset="0"/><stop stop-color="#ededed" stop-opacity=".3" offset="100%"/></linearGradient></defs><g id="画板" stroke="none" stroke-width="1" fill="none" fill-rule="evenodd" opacity=".9"><g id="LoadingWithe备份"><path d="M28 0C43.463973.0 56 12.536027 56 28 56 43.463973 43.463973 56 28 56V51.1C40.7577777 51.1 51.1 40.7577777 51.1 28 51.1 15.2422223 40.7577777 4.9 28 4.9V0z" id="路径" fill="url(#linearGradient-1)"/><path d="M28 0V4.9C15.2422223 4.9 4.9 15.2422223 4.9 28 4.9 40.7577777 15.2422223 51.1 28 51.1V56C12.536027 56 0 43.463973.0 28 0 12.536027 12.536027.0 28 0z" id="路径" fill="url(#linearGradient-2)"/><circle id="Oval" fill="#ededed" cx="28.35" cy="2.45" r="2.45"/></g></g></svg>