<svg width="32" height="32" viewBox="0 0 32 32" xmlns="http://www.w3.org/2000/svg" xmlns:xlink="http://www.w3.org/1999/xlink"><title>画板</title><desc>Created with Sketch.</desc><g id="画板" stroke="none" stroke-width="1" fill="none" fill-rule="evenodd"><g id="编组"><path d="M10.5046667 13.3326667 12.1046667 14.9326667 4.26666667 14.9333333V27.7333333H17.0666667L17.0656667 19.8946667 18.6666667 21.4956667V27.9967023C18.6666667 28.7256521 18.0682366 29.3333333 17.3300356 29.3333333H4.00329773C3.27434794 29.3333333 2.66666667 28.7349032 2.66666667 27.9967023V14.6699644C2.66666667 13.9410146 3.26509678 13.3333333 4.00329773 13.3333333L10.5046667 13.3326667zM11.0869514 16.51691C11.3282475 16.9705467 11.5984991 17.5786129 11.6950176 17.9839903L10.9132182 18.2252865H14.9669928V19.5958483H13.5095643C13.0559276 20.9084991 12.4382096 21.9991575 11.6467584 22.896779 12.6119428 23.5917118 13.7798159 24.1032596 15.1793333 24.4121186 14.8608225 24.7209776 14.4457932 25.3386956 14.2334526 25.7247694 12.7470686 25.3386956 11.5405881 24.7402813 10.5464481 23.9391782 9.4943971 24.7692368 8.22035367 25.377303 6.69536229 25.8019841 6.54093278 25.4641696 6.11625164 24.8078442 5.846 24.4796815 7.32273216 24.1515188 8.52921269 23.6496229 9.50404895 22.9353864 8.70294588 22.0088094 8.08522785 20.8988473 7.58333195 19.5958483H6.05834057V18.2252865H10.0349004C9.93838194 17.8392127 9.76464874 17.3469686 9.5812637 16.9608949L11.0869514 16.51691zM11.9266618 19.5958483H9.04076043C9.41718235 20.483818 9.92873009 21.2752692 10.5754037 21.9605502 11.1448625 21.3042248 11.5984991 20.5224254 11.9266618 19.5958483zM27.9967023 2.66666667C28.7256521 2.66666667 29.3333333 3.26509678 29.3333333 4.00329773V17.3300356C29.3333333 18.0589854 28.7349032 18.6666667 27.9967023 18.6666667H18.6666667L17.0656667 17.0656667 17.0666667 14.9333333 14.9326667 14.9326667 13.3326667 13.3326667 13.3333333 4.00329773C13.3333333 3.27434794 13.9317634 2.66666667 14.6699644 2.66666667H27.9967023zM27.7333333 4.26666667H14.9333333L14.9326667 13.3326667 17.3300356 13.3333333C17.6301914 13.3333333 17.9097861 13.4347973 18.1348609 13.6057039L18.1846667 13.6476667 18 14.1822917 18.5726667 14.1816667 18.6125668 14.2947309C18.6477423 14.4137756 18.6666667 14.5396936 18.6666667 14.6699644V17.0656667L27.7333333 17.0666667V4.26666667zM22.4583333 6.66666667 25.0729167 14.1822917h-1.671875L22.828125 12.359375H20.1875L19.6145833 14.1822917 18.5726667 14.1816667C18.4958855 13.9877667 18.3770307 13.8188893 18.2278846 13.6831079L18.1846667 13.6476667 20.609375 6.66666667H22.4583333zM21.5260417 8.10416667H21.4895833L20.5260417 11.1822917H22.4895833L21.5260417 8.10416667z" id="形状结合" fill-opacity=".9" fill="#000"/><path id="Path" fill="#181818" d="M4.41421356 4.41421356 5.82842712 3 28.4558441 25.627417 27.0416306 27.0416306z"/></g></g></svg>