<svg width="24" height="24" viewBox="0 0 24 24" xmlns="http://www.w3.org/2000/svg" xmlns:xlink="http://www.w3.org/1999/xlink"><title>icons_outlined_translate</title><desc>Created with Sketch.</desc><defs/><g id="icons_outlined_translate" stroke="none" stroke-width="1" fill="none" fill-rule="evenodd"><g id="Group-9" fill="#000" fill-rule="nonzero"><g id="Group-10" transform="translate(2.000000, 2.000000)"><path d="M1.2 9.2V18.8H10.8V9.2H1.2zM8 8V1.00247329C8 .455760956 8.44882258.0 9.00247329.0H18.9975267C19.544239.0 20 .448822582 20 1.00247329V10.9975267C20 11.544239 19.5511774 12 18.9975267 12H12V18.9975267C12 19.544239 11.5511774 20 10.9975267 20H1.00247329C.455760956 20 0 19.5511774.0 18.9975267V9.00247329C0 8.45576096.448822582 8 1.00247329 8H8zM9.2 8H10.9975267C11.544239 8 12 8.44882258 12 9.00247329V10.8H18.8V1.2H9.2V8zM6.94499638 12.6968862H4.78057032C5.06288676 13.3628635 5.44654757 13.9564519 5.93155274 14.4704126 6.35864685 13.9781686 6.69887435 13.391819 6.94499638 12.6968862zm2.280248189999999.0H8.13217322C7.79194571 13.6813744 7.32865719 14.4993681 6.73506877 15.1725843 7.45895708 15.6937839 8.33486194 16.0774447 9.3845 16.3090889 9.14561686 16.5407332 8.83434488 17.0040217 8.67508945 17.293577 7.56030145 17.0040217 6.65544105 16.555211 5.90983609 15.9543837 5.12079783 16.5769276 4.16526525 17.0329772 3.02152172 17.3514881 2.90569959 17.0981272 2.58718873 16.6058831 2.3845 16.3597611 3.49204912 16.1136391 4.39690951 15.7372172 5.12803671 15.2015398 4.52720941 14.506607 4.06392089 13.6741355 3.68749897 12.6968862H2.54375543V11.6689648H5.52617528C5.45378645 11.3794095 5.32348656 11.0102265 5.18594778 10.7206711L6.31521355 10.3876825C6.49618563 10.72791 6.69887435 11.1839597 6.77126319 11.4879928L6.18491365 11.6689648H9.22524457V12.6968862zM15.5507812 8.63671875 15.1210938 7.26953125H13.140625l-.4296875 1.3671875H11.5L13.4570312 3H14.84375l1.9609375 5.63671875H15.5507812zM14.1171875 4.078125 13.3945312 6.38671875H14.8671875L14.1445312 4.078125H14.1171875z" id="Rectangle-44"/></g></g></g></svg>