<svg width="24" height="24" viewBox="0 0 24 24" xmlns="http://www.w3.org/2000/svg" xmlns:xlink="http://www.w3.org/1999/xlink"><title>icons_outlined_delete</title><desc>Created with Sketch.</desc><defs/><g id="icons_outlined_delete" stroke="none" stroke-width="1" fill="none" fill-rule="evenodd"><g id="icon39" fill="#000" fill-rule="nonzero"><path d="M6.77355253 6.39999695 7.58590583 20.0475349C7.61106164 20.4701525 7.96112672 20.8 8.38449235 20.8H15.6155076C16.0388733 20.8 16.3889384 20.4701525 16.4140942 20.0475349L17.2264475 6.39999695H6.77355253zM18.4285714 6.399997 17.611974 20.1188373C17.5490844 21.1753813 16.6739217 22 15.6155076 22H8.38449235C7.32607828 22 6.45091556 21.1753813 6.38802605 20.1188373L5.57142856 6.399997H3.5V5.69999695c0-.27614238000000046.22385762999999992-.5.5-.5H20c.27614240000000123.0.5.22385761999999954.5.5V6.399997H18.4285714zM14 3.00002729c.27614239999999945.0.5.22385762000000042.5.5V4.20002423h-5V3.50002729c0-.2761423799999996.22385762999999947-.5.5-.5h4zM9.5 9H10.7000122l.5 9H10L9.5 9zM13.2999878 9H14.5L14 18H12.7999878l.5-9z" id="Combined-Shape"/></g></g></svg>